<?xml version="1.0" encoding="UTF-8"?>
<svg version="1.1" xmlns="http://www.w3.org/2000/svg" width="626" height="626">
<path d="M0 0 C206.58 0 413.16 0 626 0 C626 206.58 626 413.16 626 626 C419.42 626 212.84 626 0 626 C0 419.42 0 212.84 0 0 Z " fill="#FEFEFE" transform="translate(0,0)"/>
<path d="M0 0 C0.7128717 0.00093658 1.42574341 0.00187317 2.16021729 0.00283813 C23.78629537 0.06451235 42.82521195 3.98462979 62.921875 11.85546875 C66.04870023 13.06163097 69.18702411 14.15580842 72.375 15.1875 C72.375 15.8475 72.375 16.5075 72.375 17.1875 C73.695 17.1875 75.015 17.1875 76.375 17.1875 C76.375 17.8475 76.375 18.5075 76.375 19.1875 C77.62216797 19.5278125 77.62216797 19.5278125 78.89453125 19.875 C83.08013281 21.45340867 86.40265075 23.65347975 90.0625 26.1875 C90.72572266 26.63867188 91.38894531 27.08984375 92.07226562 27.5546875 C93.30125174 28.39133867 94.52830747 29.23083842 95.75268555 30.07421875 C97.2843877 31.1253191 98.82932835 32.15705223 100.375 33.1875 C100.375 33.8475 100.375 34.5075 100.375 35.1875 C101.2103125 35.2803125 101.2103125 35.2803125 102.0625 35.375 C105.32596487 36.52162279 107.01554906 38.70705157 109.375 41.1875 C110.365 41.8475 111.355 42.5075 112.375 43.1875 C112.375 43.8475 112.375 44.5075 112.375 45.1875 C113.035 45.1875 113.695 45.1875 114.375 45.1875 C114.375 45.8475 114.375 46.5075 114.375 47.1875 C115.035 47.1875 115.695 47.1875 116.375 47.1875 C116.375 47.8475 116.375 48.5075 116.375 49.1875 C117.035 49.1875 117.695 49.1875 118.375 49.1875 C118.375 49.8475 118.375 50.5075 118.375 51.1875 C119.035 51.1875 119.695 51.1875 120.375 51.1875 C121.8828125 52.8671875 121.8828125 52.8671875 123.5 55.0625 C124.03882813 55.78179687 124.57765625 56.50109375 125.1328125 57.2421875 C126.375 59.1875 126.375 59.1875 126.375 61.1875 C127.035 61.1875 127.695 61.1875 128.375 61.1875 C130.05048539 63.27884327 131.5994654 65.36521172 133.125 67.5625 C133.57020996 68.19720215 134.01541992 68.8319043 134.47412109 69.48583984 C144.375 83.72486228 144.375 83.72486228 144.375 89.1875 C145.035 89.1875 145.695 89.1875 146.375 89.1875 C147.2939937 91.45741443 148.21020077 93.72839519 149.125 96 C149.37765625 96.62326172 149.6303125 97.24652344 149.890625 97.88867188 C150.73259476 99.98307165 151.55603899 102.08399649 152.375 104.1875 C152.70540283 105.0228125 153.03580566 105.858125 153.3762207 106.71875 C155.99048813 113.56337745 157.68734802 120.37317673 159.0625 127.5625 C159.38383911 129.2165686 159.38383911 129.2165686 159.71166992 130.90405273 C161.11636746 138.33625962 162.21576725 145.61399247 162.375 153.1875 C162.4678125 154.86005859 162.4678125 154.86005859 162.5625 156.56640625 C163.25057551 177.1871693 158.65121747 197.66846365 152.375 217.1875 C151.715 217.1875 151.055 217.1875 150.375 217.1875 C150.26285156 218.04601562 150.15070313 218.90453125 150.03515625 219.7890625 C149.34851836 223.3238256 148.24205313 226.26353124 146.8125 229.5625 C146.35746094 230.62210938 145.90242188 231.68171875 145.43359375 232.7734375 C145.08425781 233.57007813 144.73492187 234.36671875 144.375 235.1875 C143.715 235.1875 143.055 235.1875 142.375 235.1875 C142.065625 236.363125 142.065625 236.363125 141.75 237.5625 C139.9018661 242.43485302 137.4446244 246.96676645 134.375 251.1875 C133.715 251.1875 133.055 251.1875 132.375 251.1875 C131.715 253.1675 131.055 255.1475 130.375 257.1875 C129.715 257.1875 129.055 257.1875 128.375 257.1875 C128.375 257.8475 128.375 258.5075 128.375 259.1875 C127.715 259.1875 127.055 259.1875 126.375 259.1875 C126.313125 259.72375 126.25125 260.26 126.1875 260.8125 C124.97464736 264.35776157 122.92889074 266.4467392 120.375 269.1875 C119.715 269.1875 119.055 269.1875 118.375 269.1875 C118.375 269.8475 118.375 270.5075 118.375 271.1875 C117.715 271.1875 117.055 271.1875 116.375 271.1875 C116.375 271.8475 116.375 272.5075 116.375 273.1875 C115.715 273.1875 115.055 273.1875 114.375 273.1875 C114.375 273.8475 114.375 274.5075 114.375 275.1875 C113.715 275.1875 113.055 275.1875 112.375 275.1875 C112.375 275.8475 112.375 276.5075 112.375 277.1875 C108.90643081 280.41709297 105.10819578 283.27052265 101.375 286.1875 C100.55805664 286.83138672 100.55805664 286.83138672 99.72460938 287.48828125 C98.11539444 288.75198266 96.49732772 290.00319255 94.875 291.25 C93.40546875 292.38115234 93.40546875 292.38115234 91.90625 293.53515625 C89.375 295.1875 89.375 295.1875 86.375 295.1875 C86.375 295.8475 86.375 296.5075 86.375 297.1875 C64.615 309.1875 64.615 309.1875 58.375 309.1875 C59.035 304.5675 59.695 299.9475 60.375 295.1875 C61.86 294.795625 63.345 294.40375 64.875 294 C69.38110818 292.66864986 72.93526216 290.84748182 76.78125 288.17578125 C78.375 287.1875 78.375 287.1875 80.375 287.1875 C80.375 286.5275 80.375 285.8675 80.375 285.1875 C85.78676471 281.1875 85.78676471 281.1875 88.375 281.1875 C88.375 280.5275 88.375 279.8675 88.375 279.1875 C89.035 279.1875 89.695 279.1875 90.375 279.1875 C90.375 278.5275 90.375 277.8675 90.375 277.1875 C92.02502828 275.83363064 93.6924387 274.50071858 95.375 273.1875 C95.705 272.5275 96.035 271.8675 96.375 271.1875 C97.035 271.1875 97.695 271.1875 98.375 271.1875 C98.375 270.5275 98.375 269.8675 98.375 269.1875 C99.035 269.1875 99.695 269.1875 100.375 269.1875 C100.375 268.5275 100.375 267.8675 100.375 267.1875 C101.035 267.1875 101.695 267.1875 102.375 267.1875 C102.66375 266.424375 102.9525 265.66125 103.25 264.875 C104.375 262.1875 104.375 262.1875 106.375 259.1875 C107.035 259.1875 107.695 259.1875 108.375 259.1875 C109.31119813 256.03243858 109.4807123 253.22163498 109.4375 249.9375 C109.42396484 248.59945312 109.42396484 248.59945312 109.41015625 247.234375 C109.39855469 246.55890625 109.38695312 245.8834375 109.375 245.1875 C104.51448404 242.59522482 99.72228867 243.00060447 94.375 243.1875 C93.715 244.5075 93.055 245.8275 92.375 247.1875 C91.715 247.1875 91.055 247.1875 90.375 247.1875 C90.271875 247.765 90.16875 248.3425 90.0625 248.9375 C89.26603535 251.54411158 88.18434723 253.1610311 86.375 255.1875 C85.715 255.1875 85.055 255.1875 84.375 255.1875 C84.375 255.8475 84.375 256.5075 84.375 257.1875 C83.715 257.1875 83.055 257.1875 82.375 257.1875 C82.375 257.8475 82.375 258.5075 82.375 259.1875 C81.715 259.1875 81.055 259.1875 80.375 259.1875 C80.375 259.8475 80.375 260.5075 80.375 261.1875 C79.715 261.1875 79.055 261.1875 78.375 261.1875 C78.375 261.8475 78.375 262.5075 78.375 263.1875 C77.715 263.1875 77.055 263.1875 76.375 263.1875 C76.375 263.8475 76.375 264.5075 76.375 265.1875 C75.715 265.1875 75.055 265.1875 74.375 265.1875 C74.375 265.8475 74.375 266.5075 74.375 267.1875 C72.13432274 268.85394821 69.91179198 270.37747102 67.5625 271.875 C66.91990234 272.30361328 66.27730469 272.73222656 65.61523438 273.17382812 C63.92076761 274.26425699 62.15048099 275.23465165 60.375 276.1875 C56.90586681 275.03112227 56.47334802 273.89929082 54.59375 270.9375 C48.97214666 262.86545418 41.6192715 258.9349597 32.375 256.1875 C29.35253404 255.86997628 29.35253404 255.86997628 26.19287109 255.88110352 C24.38971939 255.85712242 24.38971939 255.85712242 22.55014038 255.83265686 C21.26257843 255.82729416 19.97501648 255.82193146 18.6484375 255.81640625 C17.29570425 255.80742266 15.94297191 255.79830054 14.59024048 255.78904724 C11.75756429 255.77259806 8.92500565 255.76486536 6.09228516 255.76196289 C2.49473627 255.75660157 -1.10167773 255.71899999 -4.69890785 255.67321873 C-7.49425082 255.64319377 -10.28932975 255.63623381 -13.08481979 255.63523674 C-15.0454789 255.62908229 -17.00602229 255.59974047 -18.96646118 255.56971741 C-30.4869633 255.62706194 -39.60770843 258.61863317 -48.1015625 266.5390625 C-49.82534325 268.31755191 -49.82534325 268.31755191 -51.625 271.1875 C-52.285 271.1875 -52.945 271.1875 -53.625 271.1875 C-57.95329266 283.55405046 -59.02217265 293.76656529 -55.28125 306.49609375 C-54.60898553 309.25317838 -54.25626203 311.3699637 -54.625 314.1875 C-56.0859375 315.76953125 -56.0859375 315.76953125 -58 317 C-58.62648438 317.41894531 -59.25296875 317.83789062 -59.8984375 318.26953125 C-61.625 319.1875 -61.625 319.1875 -63.625 319.1875 C-63.625 319.8475 -63.625 320.5075 -63.625 321.1875 C-65.605 321.8475 -67.585 322.5075 -69.625 323.1875 C-69.625 323.8475 -69.625 324.5075 -69.625 325.1875 C-71.605 325.8475 -73.585 326.5075 -75.625 327.1875 C-75.625 327.8475 -75.625 328.5075 -75.625 329.1875 C-90.86355324 337.9415625 -105.70710626 346.17622952 -122.625 351.1875 C-123.7696875 351.55875 -124.914375 351.93 -126.09375 352.3125 C-129.88955217 353.25305275 -133.15983091 353.38683655 -137.0625 353.3125 C-138.29871094 353.29445313 -139.53492188 353.27640625 -140.80859375 353.2578125 C-142.20271484 353.22300781 -142.20271484 353.22300781 -143.625 353.1875 C-142.95332421 349.71582636 -141.55753355 347.06153987 -139.8125 344 C-135.57551324 336.33115461 -132.34594032 328.65245866 -129.5 320.375 C-129.24605469 319.6523999 -128.99210937 318.9297998 -128.73046875 318.18530273 C-125.13386403 307.44425206 -124.23681361 296.71263617 -124.25 285.4375 C-124.24943604 284.21482422 -124.24887207 282.99214844 -124.24829102 281.73242188 C-124.36267845 272.29639586 -125.63419382 264.12388474 -128.625 255.1875 C-128.97253579 253.85779787 -129.31332508 252.52606178 -129.625 251.1875 C-130.285 251.1875 -130.945 251.1875 -131.625 251.1875 C-133.1328125 249.0703125 -133.1328125 249.0703125 -134.75 246.3125 C-135.28882813 245.40757812 -135.82765625 244.50265625 -136.3828125 243.5703125 C-137.625 241.1875 -137.625 241.1875 -137.625 239.1875 C-138.285 239.1875 -138.945 239.1875 -139.625 239.1875 C-139.98851562 238.24390625 -139.98851562 238.24390625 -140.359375 237.28125 C-141.97049257 233.16670358 -143.59640062 229.1158988 -145.625 225.1875 C-150.06333481 216.50194933 -152.69089375 207.68788746 -154.8125 198.1875 C-155.07224609 197.07632813 -155.33199219 195.96515625 -155.59960938 194.8203125 C-162.79444876 163.21507488 -160.18740794 128.9931035 -147.625 99.1875 C-146.83078111 97.18851214 -146.03875426 95.18865038 -145.25 93.1875 C-144.71021728 91.85340286 -144.1694143 90.51971381 -143.625 89.1875 C-142.965 89.1875 -142.305 89.1875 -141.625 89.1875 C-141.52316406 88.47851562 -141.42132813 87.76953125 -141.31640625 87.0390625 C-139.08506672 77.83636275 -131.71345321 68.29769363 -125.625 61.1875 C-124.965 61.1875 -124.305 61.1875 -123.625 61.1875 C-123.41875 60.506875 -123.2125 59.82625 -123 59.125 C-121.19604973 55.27110625 -118.7239655 52.10962236 -115.625 49.1875 C-114.965 49.1875 -114.305 49.1875 -113.625 49.1875 C-113.625 48.5275 -113.625 47.8675 -113.625 47.1875 C-112.965 47.1875 -112.305 47.1875 -111.625 47.1875 C-111.625 46.5275 -111.625 45.8675 -111.625 45.1875 C-110.13867188 43.67626953 -110.13867188 43.67626953 -108.09375 41.9453125 C-107.35898438 41.32172852 -106.62421875 40.69814453 -105.8671875 40.05566406 C-105.12726563 39.43916992 -104.38734375 38.82267578 -103.625 38.1875 C-103.00882813 37.66639648 -102.39265625 37.14529297 -101.7578125 36.60839844 C-86.54990748 23.93237717 -68.60886242 13.10422105 -49.625 7.1875 C-48.44679688 6.81238281 -47.26859375 6.43726563 -46.0546875 6.05078125 C-39.54110018 4.08010993 -33.3967827 2.76137989 -26.625 2.1875 C-26.295 1.8575 -25.965 1.5275 -25.625 1.1875 C-17.21599254 -0.31334817 -8.51243702 -0.01441199 0 0 Z " fill="#43D0CA" transform="translate(311.625,134.8125)"/>
<path d="M0 0 C4.79415054 -0.38353204 8.12011885 -0.43994058 12.5 1.75 C14.93806165 3.94425548 15.77069943 4.78979202 16 8 C16.66 8 17.32 8 18 8 C18.05437607 9.58294782 18.09296271 11.16644256 18.125 12.75 C18.14820313 13.63171875 18.17140625 14.5134375 18.1953125 15.421875 C17.99139502 18.1135858 17.36551721 19.69904974 16 22 C15.34 22 14.68 22 14 22 C14 22.66 14 23.32 14 24 C12.02 24.66 10.04 25.32 8 26 C8 31.94 8 37.88 8 44 C14.6 44 21.2 44 28 44 C28 44.66 28 45.32 28 46 C28.66 46 29.32 46 30 46 C30.33 47.65 30.66 49.3 31 51 C32.28390625 50.96519531 33.5678125 50.93039063 34.890625 50.89453125 C39.99455193 50.89951945 44.76327327 51.65296781 49.75 52.6875 C50.62398437 52.86756592 51.49796875 53.04763184 52.3984375 53.2331543 C67.01129201 56.38661046 80.27262561 62.67140673 92 72 C92 72.66 92 73.32 92 74 C92.66 74 93.32 74 94 74 C95.5078125 75.6796875 95.5078125 75.6796875 97.125 77.875 C97.66382813 78.59429687 98.20265625 79.31359375 98.7578125 80.0546875 C100 82 100 82 100 84 C100.66 84 101.32 84 102 84 C114.02780735 109.01124871 122.88106353 141.71328747 113.8125 169.1875 C109.70883127 179.99267817 103.77017715 190.2718241 95 198 C94.01 198 93.02 198 92 198 C92 198.66 92 199.32 92 200 C81.08868316 208.91038768 67.87066938 212.30552899 54.16479492 212.2746582 C52.98990005 212.27976913 51.81500519 212.28488007 50.60450745 212.29014587 C46.72977571 212.30401862 42.85522234 212.30308663 38.98046875 212.30078125 C36.96233153 212.3030925 34.94419867 212.30659646 32.92606336 212.310188 C26.58309642 212.32126287 20.24018871 212.32173247 13.8972168 212.31567383 C7.37554995 212.30963977 0.85409916 212.3219351 -5.66753083 212.3432439 C-11.28563006 212.36091873 -16.9036609 212.3668519 -22.52178687 212.36360615 C-25.86886932 212.36180194 -29.21567535 212.3656752 -32.56275368 212.37832069 C-36.30087356 212.39070942 -40.03849887 212.38387788 -43.77661133 212.37231445 C-44.87045135 212.37995819 -45.96429138 212.38760193 -47.09127808 212.39547729 C-56.90205266 212.328676 -65.00493782 209.86990594 -73.625 205.3125 C-74.24761719 204.99216797 -74.87023437 204.67183594 -75.51171875 204.34179688 C-77.01171436 203.56872222 -78.50647371 202.78550014 -80 202 C-80 201.34 -80 200.68 -80 200 C-80.5775 199.731875 -81.155 199.46375 -81.75 199.1875 C-84.05550043 197.97070811 -86.02056192 196.69666121 -88 195 C-88 194.34 -88 193.68 -88 193 C-88.66 193 -89.32 193 -90 193 C-91.71556817 190.97471864 -93.2745376 188.96784325 -94.8125 186.8125 C-95.26101318 186.18408203 -95.70952637 185.55566406 -96.17163086 184.90820312 C-109.37758273 165.73618363 -108.42889338 138.38399634 -104.5 116.125 C-102.54558748 106.08255671 -98.61069072 97.08166354 -94 88 C-93.59007812 87.17757812 -93.18015625 86.35515625 -92.7578125 85.5078125 C-92.50773438 85.01023437 -92.25765625 84.51265625 -92 84 C-91.34 84 -90.68 84 -90 84 C-89.71125 83.4225 -89.4225 82.845 -89.125 82.25 C-88.08333333 80.16666667 -87.04166667 78.08333333 -86 76 C-85.34 76 -84.68 76 -84 76 C-84 75.34 -84 74.68 -84 74 C-82.11658031 72.38606331 -80.24272703 70.90423978 -78.25 69.4375 C-77.71117187 69.02564453 -77.17234375 68.61378906 -76.6171875 68.18945312 C-73.8294948 66.1122821 -71.48635991 64.4823362 -68 64 C-68 63.34 -68 62.68 -68 62 C-64.91190305 60.23537317 -63.76687864 60 -60 60 C-60 59.34 -60 58.68 -60 58 C-46.83637395 53.46416679 -34.93884466 51.03153585 -21 51 C-20.9175 50.21625 -20.835 49.4325 -20.75 48.625 C-20 46 -20 46 -18.22363281 44.84814453 C-15.85443614 43.94447861 -14.19561448 43.76863408 -11.671875 43.8046875 C-10.9509668 43.80968262 -10.23005859 43.81467773 -9.48730469 43.81982422 C-8.58399414 43.83803223 -7.68068359 43.85624023 -6.75 43.875 C-3.8625 43.91625 -0.975 43.9575 2 44 C2 38.06 2 32.12 2 26 C0.02 25.34 -1.96 24.68 -4 24 C-4 23.34 -4 22.68 -4 22 C-4.66 22 -5.32 22 -6 22 C-7.81643761 18.88610696 -8.2719038 16.59222291 -8.25 13 C-8.25773437 11.7315625 -8.25773437 11.7315625 -8.265625 10.4375 C-7.98531155 7.86521189 -7.2948187 6.2196892 -6 4 C-5.34 4 -4.68 4 -4 4 C-4 3.34 -4 2.68 -4 2 C-2.68 2 -1.36 2 0 2 C0 1.34 0 0.68 0 0 Z " fill="#F5F5F7" transform="translate(308,170)"/>
<path d="M0 0 C2.33966246 -0.00711585 4.67932321 -0.01481689 7.01898193 -0.02307129 C11.90739805 -0.03646459 16.79565279 -0.03810835 21.68408203 -0.03222656 C27.9050316 -0.02633926 34.1251984 -0.05690746 40.34599686 -0.09734344 C45.17460194 -0.12337172 50.00302238 -0.12608411 54.83168793 -0.12245178 C57.12309483 -0.12412927 59.41451155 -0.13363724 61.70584869 -0.15159607 C79.52046905 -0.27586454 98.05051881 0.60967999 111.9375 13.3125 C117.16738966 18.85003023 121.03161193 25.14919062 121.359375 32.90625 C120.9093201 40.97910974 118.72100221 47.79660278 113.08203125 53.7109375 C105.86989722 59.57976266 97.38883992 61.57502474 88.26313782 61.61592102 C87.16011826 61.62307632 86.05709869 61.63023163 84.9206543 61.63760376 C83.72520996 61.64029266 82.52976562 61.64298157 81.2980957 61.64575195 C79.39207832 61.65560875 79.39207832 61.65560875 77.44755554 61.66566467 C73.24760174 61.68660852 69.04764797 61.69705806 64.84765625 61.70703125 C63.39607411 61.71108244 61.94449215 61.71519947 60.49291039 61.71938133 C53.67081183 61.73841185 46.84872395 61.75264727 40.026604 61.7609933 C32.17698647 61.77075759 24.32765153 61.79706475 16.4781335 61.83749419 C10.3938122 61.86774627 4.30957151 61.88247075 -1.77482349 61.88577431 C-5.40088502 61.88811442 -9.02664393 61.8969381 -12.65262413 61.92223549 C-16.70438535 61.95004913 -20.75552215 61.94565747 -24.80737305 61.9387207 C-26.58535782 61.95793579 -26.58535782 61.95793579 -28.39926147 61.97753906 C-38.2466007 61.9163297 -47.27750138 59.78354055 -55.078125 53.46875 C-61.43794614 46.81984609 -62.57192093 40.4928197 -62.58007812 31.58618164 C-62.32066493 23.01670266 -58.44997464 17.50321006 -52.390625 11.65625 C-37.2405664 -0.53839944 -18.37670005 -0.00683058 0 0 Z " fill="#272626" transform="translate(285.078125,267.53125)"/>
<path d="M0 0 C4.56944444 2.13888889 4.56944444 2.13888889 6 5 C6.40601504 13.39097744 6.40601504 13.39097744 4 17 C3.34 17 2.68 17 2 17 C1.566875 18.1446875 1.566875 18.1446875 1.125 19.3125 C0 22 0 22 -2 25 C-2.66 25 -3.32 25 -4 25 C-4 25.66 -4 26.32 -4 27 C-4.66 27 -5.32 27 -6 27 C-6 27.66 -6 28.32 -6 29 C-6.66 29 -7.32 29 -8 29 C-8.2475 29.61875 -8.495 30.2375 -8.75 30.875 C-10.20628639 33.35068687 -11.37812506 33.95125002 -14 35 C-14 35.66 -14 36.32 -14 37 C-14.66 37 -15.32 37 -16 37 C-16 37.66 -16 38.32 -16 39 C-21.41176471 43 -21.41176471 43 -24 43 C-24 43.66 -24 44.32 -24 45 C-26.01171875 46.4375 -26.01171875 46.4375 -28.6875 48 C-29.55761719 48.515625 -30.42773438 49.03125 -31.32421875 49.5625 C-35.69275873 51.90939447 -38.99994452 53.28571746 -44 53 C-43.95875 54.19625 -43.9175 55.3925 -43.875 56.625 C-43.86148292 60.42329953 -44.57990247 63.44975618 -46 67 C-45.34 67.33 -44.68 67.66 -44 68 C-49.46557527 70.11352009 -54.923797 71.97080913 -60.5625 73.5625 C-61.25923828 73.77068359 -61.95597656 73.97886719 -62.67382812 74.19335938 C-75.90482611 77.93179016 -89.41465207 78.40658858 -103.0625 78.375 C-104.27415329 78.37518127 -104.27415329 78.37518127 -105.51028442 78.37536621 C-118.68166692 78.34740253 -131.20858371 77.34445453 -144 74 C-144.74362793 73.80792969 -145.48725586 73.61585938 -146.25341797 73.41796875 C-150.20242461 72.37787204 -154.11065642 71.24777576 -158 70 C-158.495 70.99 -158.495 70.99 -159 72 C-162.9853661 56.98370987 -165.8895207 43.34458309 -158 29 C-157.34 29 -156.68 29 -156 29 C-155.73960937 28.41089844 -155.47921875 27.82179688 -155.2109375 27.21484375 C-150.92306497 19.37218658 -142.18280516 15.48841671 -134 13 C-129.21457592 12.3381143 -124.51325107 12.29706881 -119.6875 12.3359375 C-118.34333867 12.33255606 -116.99918035 12.32769252 -115.6550293 12.32144165 C-112.85793526 12.31413225 -110.06164757 12.32457954 -107.26464844 12.34814453 C-103.7141854 12.37663125 -100.16561312 12.36019462 -96.61521912 12.33028221 C-93.84552259 12.31204548 -91.07626007 12.31804085 -88.30654907 12.33092117 C-86.37256615 12.33578639 -84.43856498 12.32084401 -82.50463867 12.30526733 C-71.26463223 12.45269115 -61.92166035 15.36980117 -53.6875 23.2265625 C-47.78536585 29.42926829 -47.78536585 29.42926829 -46 33 C-40.97319989 31.74329997 -37.68622873 29.44349537 -33.734375 26.2421875 C-32 25 -32 25 -30 25 C-30 24.34 -30 23.68 -30 23 C-29.34 23 -28.68 23 -28 23 C-28 22.34 -28 21.68 -28 21 C-27.34 21 -26.68 21 -26 21 C-26 20.34 -26 19.68 -26 19 C-25.34 19 -24.68 19 -24 19 C-24 18.34 -24 17.68 -24 17 C-23.34 17 -22.68 17 -22 17 C-22 16.34 -22 15.68 -22 15 C-21.34 15 -20.68 15 -20 15 C-20 14.34 -20 13.68 -20 13 C-19.34 13 -18.68 13 -18 13 C-17.71125 12.4225 -17.4225 11.845 -17.125 11.25 C-16.568125 10.13625 -16.568125 10.13625 -16 9 C-15.7525 8.360625 -15.505 7.72125 -15.25 7.0625 C-11.3083311 0.55874631 -7.20815184 -0.91532087 0 0 Z " fill="#F0F1F3" transform="translate(416,377)"/>
<path d="M0 0 C0.33 0 0.66 0 1 0 C1 2.31 1 4.62 1 7 C11.23 6.01 21.46 5.02 32 4 C32 7.96 32 11.92 32 16 C32.33 16.99 32.66 17.98 33 19 C28.70677401 26.89953581 22.32835356 31.16835979 14 34 C10.07067575 34.76060159 6.34023419 35.12924987 2.34126282 35.14717102 C1.23824326 35.15432632 0.13522369 35.16148163 -1.0012207 35.16885376 C-2.19666504 35.17154266 -3.39210938 35.17423157 -4.6237793 35.17700195 C-6.52979668 35.18685875 -6.52979668 35.18685875 -8.47431946 35.19691467 C-12.67427326 35.21785852 -16.87422703 35.22830806 -21.07421875 35.23828125 C-22.52580089 35.24233244 -23.97738285 35.24644947 -25.42896461 35.25063133 C-32.25106317 35.26966185 -39.07315105 35.28389727 -45.895271 35.2922433 C-53.74488853 35.30200759 -61.59422347 35.32831475 -69.4437415 35.36874419 C-75.5280628 35.39899627 -81.61230349 35.41372075 -87.69669849 35.41702431 C-91.32276002 35.41936442 -94.94851893 35.4281881 -98.57449913 35.45348549 C-102.62626035 35.48129913 -106.67739715 35.47690747 -110.72924805 35.4699707 C-112.50723282 35.48918579 -112.50723282 35.48918579 -114.32113647 35.50878906 C-124.1684757 35.4475797 -133.19937638 33.31479055 -141 27 C-146.8100729 20.92583288 -148.28193528 15.94257009 -148.125 7.625 C-148.10695312 6.37976563 -148.08890625 5.13453125 -148.0703125 3.8515625 C-148.04710937 2.91054688 -148.02390625 1.96953125 -148 1 C-147.67 1.99 -147.34 2.98 -147 4 C-145.62714844 4.09087891 -145.62714844 4.09087891 -144.2265625 4.18359375 C-143.03804687 4.26738281 -141.84953125 4.35117187 -140.625 4.4375 C-139.44164062 4.51871094 -138.25828125 4.59992188 -137.0390625 4.68359375 C-134 5 -134 5 -132 6 C-129.87505419 6.02577428 -127.75003639 6.04578623 -125.625 6.0625 C-119.49459509 6.45365895 -119.49459509 6.45365895 -117.39453125 8.7734375 C-116.4375 10.9375 -116.4375 10.9375 -115.80859375 13.08984375 C-114.72853514 15.64128656 -113.49260352 15.92576229 -111 17 C-110.030625 17.825 -109.06125 18.65 -108.0625 19.5 C-103.25682257 23.42300198 -99.45734634 24.48771966 -93.3359375 24.3046875 C-88.33510369 23.65240483 -84.54044481 21.78978511 -81.23828125 17.953125 C-80.19734147 16.53159948 -79.19018072 15.08441071 -78.2265625 13.609375 C-77.82179688 13.07828125 -77.41703125 12.5471875 -77 12 C-76.34 12 -75.68 12 -75 12 C-75 11.34 -75 10.68 -75 10 C-70.12563009 9.77670271 -65.25426039 9.61386118 -60.37597656 9.50561523 C-58.71887346 9.46048328 -57.06212631 9.39915538 -55.40625 9.32104492 C-41.56332833 8.68463656 -41.56332833 8.68463656 -37.67578125 11.95556641 C-36.1171875 14.37890625 -36.1171875 14.37890625 -35.05029297 16.80688477 C-33.30694188 20.44717367 -30.57142215 21.35165131 -27 23 C-26.34 23.33 -25.68 23.66 -25 24 C-18.51087326 24.82123803 -13.35113156 23.80888404 -8 20 C-3.33772256 15.57438638 -0.87849418 11.127593 -0.375 4.75 C-0.30023438 3.85796875 -0.22546875 2.9659375 -0.1484375 2.046875 C-0.07496094 1.03367187 -0.07496094 1.03367187 0 0 Z " fill="#010001" transform="translate(371,294)"/>
<path d="M0 0 C4.79415054 -0.38353204 8.12011885 -0.43994058 12.5 1.75 C14.93806165 3.94425548 15.77069943 4.78979202 16 8 C16.66 8 17.32 8 18 8 C18.05437607 9.58294782 18.09296271 11.16644256 18.125 12.75 C18.14820313 13.63171875 18.17140625 14.5134375 18.1953125 15.421875 C17.99139502 18.1135858 17.36551721 19.69904974 16 22 C15.34 22 14.68 22 14 22 C14 22.66 14 23.32 14 24 C12.02 24.66 10.04 25.32 8 26 C8 31.94 8 37.88 8 44 C14.6 44 21.2 44 28 44 C28 44.66 28 45.32 28 46 C28.66 46 29.32 46 30 46 C30.495 48.475 30.495 48.475 31 51 C32.28390625 50.96519531 33.5678125 50.93039063 34.890625 50.89453125 C39.99481544 50.89951971 44.76288479 51.65402435 49.75 52.6875 C50.61818359 52.86466553 51.48636719 53.04183105 52.38085938 53.22436523 C61.17485561 55.10914223 69.78797158 57.43132747 77 63 C73.000605 63.34085232 69.00047422 63.67206508 65 64 C63.92975586 64.08910645 62.85951172 64.17821289 61.75683594 64.27001953 C23.76987529 67.29715772 -15.27084774 67.99416533 -53.22558594 64.27001953 C-58.14550694 63.79118878 -63.07339879 63.40322369 -68 63 C-64.93882432 60.37613513 -64.26826873 60 -60 60 C-60 59.34 -60 58.68 -60 58 C-46.83637395 53.46416679 -34.93884466 51.03153585 -21 51 C-20.9175 50.21625 -20.835 49.4325 -20.75 48.625 C-20 46 -20 46 -18.22363281 44.84814453 C-15.85443614 43.94447861 -14.19561448 43.76863408 -11.671875 43.8046875 C-10.5905127 43.81218018 -10.5905127 43.81218018 -9.48730469 43.81982422 C-8.58399414 43.83803223 -7.68068359 43.85624023 -6.75 43.875 C-3.8625 43.91625 -0.975 43.9575 2 44 C2 38.06 2 32.12 2 26 C0.02 25.34 -1.96 24.68 -4 24 C-4 23.34 -4 22.68 -4 22 C-4.66 22 -5.32 22 -6 22 C-7.81643761 18.88610696 -8.2719038 16.59222291 -8.25 13 C-8.25773437 11.7315625 -8.25773437 11.7315625 -8.265625 10.4375 C-7.98531155 7.86521189 -7.2948187 6.2196892 -6 4 C-5.34 4 -4.68 4 -4 4 C-4 3.34 -4 2.68 -4 2 C-2.68 2 -1.36 2 0 2 C0 1.34 0 0.68 0 0 Z " fill="#EBEEEF" transform="translate(308,170)"/>
<path d="M0 0 C5.19813171 3.72198883 8.1436669 7.65374444 9.19921875 14.02734375 C9.55823753 20.8646569 8.6991269 25.66769795 4.48046875 31.12890625 C1.78177346 33.85111959 -0.8337029 35.33190134 -4.3125 36.9375 C-5.3025 37.4325 -5.3025 37.4325 -6.3125 37.9375 C-12.80052746 38.75859891 -17.9804228 37.77659559 -23.3125 33.9375 C-28.38046614 29.19541195 -31.30377127 24.64004082 -31.6875 17.625 C-31.52333577 11.81165488 -29.62068102 7.45805603 -25.69921875 3.17578125 C-18.17699623 -3.71263982 -9.06926365 -5.07467305 0 0 Z " fill="#030505" transform="translate(286.3125,281.0625)"/>
<path d="M0 0 C4.69917291 2.9134872 7.6919867 6.52743217 10.5 11.25 C11.89955351 17.26808008 12.21307151 22.79501042 9 28.25 C5.47084102 33.18484095 1.14046245 37.39866077 -4.875 38.9375 C-12.10397161 39.68995801 -16.44171697 38.22635535 -22.5 34.1875 C-27.66052203 29.29858439 -29.14528346 25.51319695 -29.4375 18.5 C-29.18194011 11.31959139 -27.36106358 7.2222897 -22.18359375 2.34375 C-15.82565104 -2.43466206 -7.38896384 -2.60497838 0 0 Z " fill="#030507" transform="translate(359.875,280.0625)"/>
<path d="M0 0 C1.3470197 -0.00525127 2.69403572 -0.01153316 4.04104614 -0.01878357 C6.84996978 -0.02912705 9.65838496 -0.02471624 12.46728516 -0.01000977 C16.03344502 0.00715086 19.59798924 -0.01631236 23.16396904 -0.05149937 C25.94221285 -0.07366354 28.72008148 -0.07198639 31.49838638 -0.06373405 C33.44125851 -0.06253622 35.38410834 -0.08228029 37.32687378 -0.10267639 C46.4016616 -0.00853268 55.3281298 1.33369815 62.21725464 7.73582458 C62.76688873 8.33991653 63.31652283 8.94400848 63.8828125 9.56640625 C61.42547012 10.05116734 58.96711342 10.52926559 56.5078125 11.00390625 C55.82847656 11.13861328 55.14914062 11.27332031 54.44921875 11.41210938 C45.577096 13.11190859 36.75412333 13.72560811 27.73046875 13.76953125 C26.790858 13.77523132 25.85124725 13.7809314 24.88316345 13.7868042 C22.90413515 13.79618838 20.92509168 13.80276173 18.94604492 13.80664062 C15.98391927 13.81628061 13.0225085 13.84734093 10.06054688 13.87890625 C-2.16876314 13.94679227 -14.1745952 13.40897873 -26.1171875 10.56640625 C-26.7771875 9.90640625 -27.4371875 9.24640625 -28.1171875 8.56640625 C-21.30565526 -0.1028166 -10.07026631 -0.03942422 0 0 Z " fill="#FDFDFD" transform="translate(296.1171875,389.43359375)"/>
<path d="M0 0 C5.19813171 3.72198883 8.1436669 7.65374444 9.19921875 14.02734375 C9.55823753 20.8646569 8.6991269 25.66769795 4.48046875 31.12890625 C1.78177346 33.85111959 -0.8337029 35.33190134 -4.3125 36.9375 C-5.3025 37.4325 -5.3025 37.4325 -6.3125 37.9375 C-12.80052746 38.75859891 -17.9804228 37.77659559 -23.3125 33.9375 C-28.38046614 29.19541195 -31.30377127 24.64004082 -31.6875 17.625 C-31.52333577 11.81165488 -29.62068102 7.45805603 -25.69921875 3.17578125 C-18.17699623 -3.71263982 -9.06926365 -5.07467305 0 0 Z M-24.3125 9.9375 C-26.28699669 13.88649337 -25.75020498 18.63340104 -25.3125 22.9375 C-23.1767148 27.36727671 -20.92237286 30.13363671 -16.3125 31.9375 C-11.29493794 32.61827475 -7.50650463 32.53450231 -2.9375 30.25 C1.88143236 26.27029126 1.88143236 26.27029126 4.0703125 20.60546875 C4.32757653 14.88563182 3.57851126 11.36892949 -0.3125 6.9375 C-4.42724233 3.20851476 -8.60407627 2.4245228 -14.14453125 2.4453125 C-18.44196038 3.42094506 -21.42667178 6.75661203 -24.3125 9.9375 Z " fill="#11E3EA" transform="translate(286.3125,281.0625)"/>
<path d="M0 0 C4.69917291 2.9134872 7.6919867 6.52743217 10.5 11.25 C11.89955351 17.26808008 12.21307151 22.79501042 9 28.25 C5.47084102 33.18484095 1.14046245 37.39866077 -4.875 38.9375 C-12.10397161 39.68995801 -16.44171697 38.22635535 -22.5 34.1875 C-27.66052203 29.29858439 -29.14528346 25.51319695 -29.4375 18.5 C-29.18194011 11.31959139 -27.36106358 7.2222897 -22.18359375 2.34375 C-15.82565104 -2.43466206 -7.38896384 -2.60497838 0 0 Z M-21.875 9.9375 C-24.61655148 14.35293604 -24.88416026 18.89922975 -23.875 23.9375 C-21.31495614 28.13350772 -18.58769999 31.3666 -13.875 32.9375 C-8.88044092 33.46188572 -4.99543344 33.48753096 -0.4375 31.25 C2.91431337 28.22519281 4.85136301 26.20640672 5.40625 21.60546875 C5.5954969 16.34598191 5.2697716 12.34018024 2.125 7.9375 C-1.31550501 4.74873926 -4.15380971 3.62314881 -8.75 3.3125 C-14.35715259 3.53272049 -18.08656933 5.88907899 -21.875 9.9375 Z " fill="#12E3E9" transform="translate(359.875,280.0625)"/>
<path d="M0 0 C4.79415054 -0.38353204 8.12011885 -0.43994058 12.5 1.75 C14.93806165 3.94425548 15.77069943 4.78979202 16 8 C16.66 8 17.32 8 18 8 C18.05437607 9.58294782 18.09296271 11.16644256 18.125 12.75 C18.14820313 13.63171875 18.17140625 14.5134375 18.1953125 15.421875 C17.99139502 18.1135858 17.36551721 19.69904974 16 22 C15.34 22 14.68 22 14 22 C14 22.66 14 23.32 14 24 C10.88610696 25.81643761 8.59222291 26.2719038 5 26.25 C3.7315625 26.25773437 3.7315625 26.25773437 2.4375 26.265625 C-0.13478811 25.98531155 -1.7803108 25.2948187 -4 24 C-4 23.34 -4 22.68 -4 22 C-4.66 22 -5.32 22 -6 22 C-7.81643761 18.88610696 -8.2719038 16.59222291 -8.25 13 C-8.25515625 12.154375 -8.2603125 11.30875 -8.265625 10.4375 C-7.98531155 7.86521189 -7.2948187 6.2196892 -6 4 C-5.34 4 -4.68 4 -4 4 C-4 3.34 -4 2.68 -4 2 C-2.68 2 -1.36 2 0 2 C0 1.34 0 0.68 0 0 Z " fill="#FBFCFC" transform="translate(308,170)"/>
<path d="M0 0 C0.87092789 -0.0127597 1.74185577 -0.02551941 2.63917542 -0.03866577 C4.03776039 -0.04200424 4.03776039 -0.04200424 5.46459961 -0.04541016 C6.42845078 -0.05206696 7.39230194 -0.05872375 8.38536072 -0.06558228 C10.42029921 -0.07569636 12.45527078 -0.08039968 14.49023438 -0.08007812 C17.60919348 -0.08446176 20.72674921 -0.12082329 23.84545898 -0.15869141 C25.82266768 -0.16455763 27.7998831 -0.16852832 29.77709961 -0.17041016 C31.17872093 -0.19196671 31.17872093 -0.19196671 32.60865784 -0.21395874 C39.02214459 -0.16848173 39.02214459 -0.16848173 41.71240234 2.15136719 C42.55444336 4.29052734 42.55444336 4.29052734 41.80444336 6.97802734 C40.55444336 9.29052734 40.55444336 9.29052734 39.55444336 10.29052734 C38.12822491 10.40420664 36.6965042 10.45005419 35.26586914 10.4675293 C34.35467316 10.48036453 33.44347717 10.49319977 32.50466919 10.50642395 C31.01723709 10.51750435 31.01723709 10.51750435 29.49975586 10.52880859 C28.48726776 10.53688034 27.47477966 10.54495209 26.43161011 10.55326843 C24.28458376 10.56712668 22.13753523 10.57784101 19.99047852 10.58569336 C16.70017976 10.60291878 13.41088215 10.6467912 10.12084961 10.69091797 C8.03882578 10.70104316 5.95679337 10.7095598 3.87475586 10.71630859 C2.88718292 10.73381668 1.89960999 10.75132477 0.8821106 10.7693634 C-0.03538971 10.76643784 -0.95289001 10.76351227 -1.89819336 10.76049805 C-2.70570038 10.76636429 -3.5132074 10.77223053 -4.34518433 10.77827454 C-6.44555664 10.29052734 -6.44555664 10.29052734 -8.2336731 8.39396667 C-9.44555664 6.29052734 -9.44555664 6.29052734 -9.38305664 4.16552734 C-7.50051812 0.40045029 -3.89742364 0.0389046 0 0 Z " fill="#D3D2D5" transform="translate(296.445556640625,217.70947265625)"/>
<path d="M0 0 C4.13537766 0.2363073 6.24931755 1.78825605 9.1796875 4.6484375 C14.72705443 8.76729792 20.0430379 9.52681184 26.75 9.4375 C27.93372192 9.42722778 27.93372192 9.42722778 29.14135742 9.41674805 C36.06810934 9.22750802 43.21154733 8.35310481 48.59765625 3.5859375 C49.01917969 3.12445313 49.44070313 2.66296875 49.875 2.1875 C50.926875 1.1046875 50.926875 1.1046875 52 0 C54.8125 0.1875 54.8125 0.1875 57 1 C57.8125 2.6875 57.8125 2.6875 58 5 C52.62785213 11.75850861 45.39813551 15.5208817 37 17 C25.2172191 18.19868921 12.98308006 18.23069664 3.23828125 10.625 C1.875 9.3125 1.875 9.3125 0 7 C-0.66 6.34 -1.32 5.68 -2 5 C-1.46428571 1.46428571 -1.46428571 1.46428571 0 0 Z " fill="#0C0C0E" transform="translate(285,347)"/>
<path d="M0 0 C6 2 6 2 8.19140625 2.765625 C8.95324219 3.02859375 9.71507812 3.2915625 10.5 3.5625 C11.56734375 3.93568359 11.56734375 3.93568359 12.65625 4.31640625 C19.39625291 6.28224043 26.05326974 6.14182732 33.01293945 6.12939453 C34.2185553 6.13114685 35.42417114 6.13289917 36.6663208 6.13470459 C39.96194143 6.13834438 43.25749903 6.13750099 46.55311608 6.1343255 C50.01223345 6.1317851 53.47134822 6.13414428 56.9304657 6.13571167 C62.74165324 6.13752919 68.55282806 6.13513876 74.36401367 6.13037109 C81.06453738 6.12493696 87.76503062 6.12668663 94.46555358 6.1321975 C100.23307374 6.1367497 106.00058478 6.13736865 111.76810616 6.13475883 C115.20618608 6.13320664 118.64425173 6.13297296 122.0823307 6.13629532 C125.92120017 6.13884377 129.76001178 6.13494996 133.59887695 6.12939453 C135.2894648 6.13243088 135.2894648 6.13243088 137.01420593 6.13552856 C143.09310687 6.119288 148.97205431 5.79604826 155 5 C154.67 5.99 154.34 6.98 154 8 C150.0674899 8.72934361 146.33891674 9.12925578 142.34126282 9.14717102 C141.23824326 9.15432632 140.13522369 9.16148163 138.9987793 9.16885376 C137.80333496 9.17154266 136.60789062 9.17423157 135.3762207 9.17700195 C133.47020332 9.18685875 133.47020332 9.18685875 131.52568054 9.19691467 C127.32572674 9.21785852 123.12577297 9.22830806 118.92578125 9.23828125 C117.47419911 9.24233244 116.02261715 9.24644947 114.57103539 9.25063133 C107.74893683 9.26966185 100.92684895 9.28389727 94.104729 9.2922433 C86.25511147 9.30200759 78.40577653 9.32831475 70.5562585 9.36874419 C64.4719372 9.39899627 58.38769651 9.41372075 52.30330151 9.41702431 C48.67723998 9.41936442 45.05148107 9.4281881 41.42550087 9.45348549 C37.37373965 9.48129913 33.32260285 9.47690747 29.27075195 9.4699707 C27.49276718 9.48918579 27.49276718 9.48918579 25.67886353 9.50878906 C16.1718912 9.44969536 7.93822172 7.40487469 0 2 C0 1.34 0 0.68 0 0 Z " fill="#0C0C0C" transform="translate(231,320)"/>
<path d="M0 0 C3.875 1.75 3.875 1.75 5 4 C5.99 4.66 6.98 5.32 8 6 C8.3125 9 8.3125 9 8 12 C6 14 6 14 3.5 14.25 C1 14 1 14 -1 12 C-1.12117188 12.71027344 -1.24234375 13.42054688 -1.3671875 14.15234375 C-1.53476562 15.07144531 -1.70234375 15.99054688 -1.875 16.9375 C-2.03742188 17.85402344 -2.19984375 18.77054687 -2.3671875 19.71484375 C-2.57601563 20.46894531 -2.78484375 21.22304688 -3 22 C-3.66 22.33 -4.32 22.66 -5 23 C-7.77418462 18.19291085 -8.01888377 13.40677737 -7 8 C-5.04335684 4.88205741 -2.7424843 2.44165056 0 0 Z " fill="#2B2A2B" transform="translate(268,285)"/>
<path d="M0 0 C0.69222656 0.32226562 1.38445312 0.64453125 2.09765625 0.9765625 C1.76765625 1.9665625 1.43765625 2.9565625 1.09765625 3.9765625 C0.24042969 3.91855469 -0.61679687 3.86054688 -1.5 3.80078125 C-9.19276563 3.33287377 -9.19276563 3.33287377 -16.08984375 6.2265625 C-20.20691724 10.25214547 -21.12022516 13.0269023 -21.52734375 18.7265625 C-21.60210937 19.71140625 -21.676875 20.69625 -21.75390625 21.7109375 C-21.80289062 22.45859375 -21.851875 23.20625 -21.90234375 23.9765625 C-22.89234375 23.6465625 -23.88234375 23.3165625 -24.90234375 22.9765625 C-24.89074219 22.21730469 -24.87914062 21.45804687 -24.8671875 20.67578125 C-24.85816406 19.68191406 -24.84914063 18.68804687 -24.83984375 17.6640625 C-24.82244141 16.18486328 -24.82244141 16.18486328 -24.8046875 14.67578125 C-24.77904513 11.87692401 -24.77904513 11.87692401 -25.90234375 8.9765625 C-20.46049235 -1.25411814 -10.76815279 -3.79711444 0 0 Z " fill="#0DE7EA" transform="translate(357.90234375,281.0234375)"/>
<path d="M0 0 C3.97236879 0.56748126 6.7943528 1.55358503 10 4 C13.61437655 9.10998064 13.32027458 13.99781716 13 20 C12.67 19.34 12.34 18.68 12 18 C10.68 18 9.36 18 8 18 C7.67 16.02 7.34 14.04 7 12 C6.608125 12.515625 6.21625 13.03125 5.8125 13.5625 C4 15 4 15 1.375 14.75 C-1 14 -1 14 -2 13 C-2.3125 10.625 -2.3125 10.625 -2 8 C0 6.1875 0 6.1875 2 5 C1.34 4.67 0.68 4.34 0 4 C0 2.68 0 1.36 0 0 Z " fill="#2D2E30" transform="translate(352,284)"/>
<path d="M0 0 C13.21622423 -0.58594098 13.21622423 -0.58594098 19 3 C24.30049292 7.98074161 27.02157672 12.55251151 27.375 19.875 C27.29862414 24.97690766 25.88561619 27.85192672 23 32 C22 29 22 29 22.5625 26.9375 C22.706875 26.298125 22.85125 25.65875 23 25 C22.34 24.34 21.68 23.68 21 23 C20.40234375 20.7578125 20.40234375 20.7578125 19.9375 18.125 C19.6288536 16.41596623 19.31651659 14.70759371 19 13 C18.80277344 11.89011719 18.80277344 11.89011719 18.6015625 10.7578125 C18.40304687 10.17773438 18.20453125 9.59765625 18 9 C15.50965614 7.70339566 15.50965614 7.70339566 13 7 C13.66 6.67 14.32 6.34 15 6 C14.67 5.01 14.34 4.02 14 3 C10.99221479 1.99740493 8.46179353 1.69685358 5.3125 1.4375 C4.31863281 1.35371094 3.32476562 1.26992188 2.30078125 1.18359375 C1.16189453 1.09271484 1.16189453 1.09271484 0 1 C0 0.67 0 0.34 0 0 Z " fill="#18DCE3" transform="translate(344,279)"/>
<path d="M0 0 C1.98 0 3.96 0 6 0 C6 5.94 6 11.88 6 18 C12.6 18 19.2 18 26 18 C26 18.66 26 19.32 26 20 C4.22 19.505 4.22 19.505 -18 19 C-18 18.67 -18 18.34 -18 18 C-12.06 18 -6.12 18 0 18 C0 12.06 0 6.12 0 0 Z " fill="#BCCFD3" transform="translate(310,196)"/>
<path d="M0 0 C7.66038966 -0.25967423 12.1701107 0.64280443 18 6 C19.98936182 9.15836826 20.22232242 11.55174791 20.125 15.25 C20.10695313 16.14203125 20.08890625 17.0340625 20.0703125 17.953125 C20.04710937 18.62859375 20.02390625 19.3040625 20 20 C19.34 20.33 18.68 20.66 18 21 C15.875 20.0625 15.875 20.0625 14 19 C14.04125 17.7625 14.0825 16.525 14.125 15.25 C14.19129159 10.75007388 14.19129159 10.75007388 12 7 C7.98287242 6.09046168 4.10897143 5.87548571 0 6 C0.33 5.01 0.66 4.02 1 3 C0.67 2.01 0.34 1.02 0 0 Z " fill="#242121" transform="translate(270,284)"/>
<path d="M0 0 C0.68489252 2.31151227 0.9967146 4.13470138 0.9375 6.5625 C0.78998225 9.26259624 0.78998225 9.26259624 3 12 C7.34791875 14.50334716 12.11201417 14.63159367 17 14 C19.40083438 12.64114884 19.40083438 12.64114884 21 11 C21.66 11 22.32 11 23 11 C23.33 8.03 23.66 5.06 24 2 C24.33 2 24.66 2 25 2 C25.05437607 3.58294782 25.09296271 5.16644256 25.125 6.75 C25.14820313 7.63171875 25.17140625 8.5134375 25.1953125 9.421875 C24.99139502 12.1135858 24.36551721 13.69904974 23 16 C22.34 16 21.68 16 21 16 C21 16.66 21 17.32 21 18 C17.88610696 19.81643761 15.59222291 20.2719038 12 20.25 C10.7315625 20.25773437 10.7315625 20.25773437 9.4375 20.265625 C6.86521189 19.98531155 5.2196892 19.2948187 3 18 C3 17.34 3 16.68 3 16 C2.34 16 1.68 16 1 16 C-0.86131271 12.83650409 -1.24746869 10.52763845 -1.1875 6.875 C-1.17783203 5.57175781 -1.17783203 5.57175781 -1.16796875 4.2421875 C-1 2 -1 2 0 0 Z " fill="#ECECED" transform="translate(301,176)"/>
<path d="M0 0 C3 0 3 0 4.38671875 1.29296875 C8.68190139 7.54871523 9.06536481 13.57073035 8 21 C6.94181087 23.77944957 5.79216522 25.59177799 4 28 C2.68 27.34 1.36 26.68 0 26 C0.875 21.125 0.875 21.125 2 20 C2.57540973 14.02459129 2.335206 10.07531347 -1 5 C-0.6875 2.1875 -0.6875 2.1875 0 0 Z " fill="#0DE9EF" transform="translate(287,284)"/>
<path d="M0 0 C0 1.32 0 2.64 0 4 C1.32 4.66 2.64 5.32 4 6 C0 8 0 8 -4 10 C-3.34 8.68 -2.68 7.36 -2 6 C-4.60554323 6.35210044 -6.51601305 6.64385866 -8.65625 8.21875 C-10.47665317 10.63184258 -10.30382384 12.20185466 -10.1875 15.1875 C-10.16042969 16.08855469 -10.13335937 16.98960937 -10.10546875 17.91796875 C-10.07066406 18.60503906 -10.03585937 19.29210937 -10 20 C-11.65614657 20.38218767 -13.32457024 20.71395102 -15 21 C-16.63109367 19.36890633 -16.24872283 17.55812778 -16.3125 15.3125 C-16.24940643 10.39821164 -15.3764232 7.73183617 -12 4 C-7.90317027 0.61566239 -5.31347397 -0.50604514 0 0 Z " fill="#282124" transform="translate(352,284)"/>
<path d="M0 0 C0.33 0 0.66 0 1 0 C1.74884636 6.94020108 2.10667134 13.8361552 2.125 20.8125 C2.12951172 21.51689209 2.13402344 22.22128418 2.13867188 22.94702148 C2.12605967 27.40806264 1.72258415 31.61288193 1 36 C1.66 36 2.32 36 3 36 C3 38.97 3 41.94 3 45 C2.01 45.495 2.01 45.495 1 46 C-1.39358597 38.7530164 -1.27143118 31.59631047 -1.20581055 24.05419922 C-1.18748533 21.87325384 -1.18530187 19.69273338 -1.18554688 17.51171875 C-1.16474562 11.575946 -1.12623229 5.85191421 0 0 Z " fill="#F3EBF2" transform="translate(203,292)"/>
<path d="M0 0 C2.32603053 1.13096367 3.97915109 2.35141273 6 4 C5.34 5.65 4.68 7.3 4 9 C3.505 8.71125 3.01 8.4225 2.5 8.125 C0.2065511 7.092948 -1.74492866 6.58434199 -4.1875 6.0625 C-5.445625 5.711875 -6.70375 5.36125 -8 5 C-8.33 4.01 -8.66 3.02 -9 2 C-10.65 1.67 -12.3 1.34 -14 1 C-9.33445003 -1.7735297 -5.15551499 -1.15918026 0 0 Z " fill="#15D7DD" transform="translate(282,279)"/>
<path d="M0 0 C2.0622048 -0.054348 4.12482816 -0.09294961 6.1875 -0.125 C7.33605469 -0.14820313 8.48460937 -0.17140625 9.66796875 -0.1953125 C12.91740372 -0.00484152 15.08660521 0.60639873 18 2 C17.67 2.99 17.34 3.98 17 5 C16.09636719 4.98839844 15.19273437 4.97679687 14.26171875 4.96484375 C12.49248047 4.95130859 12.49248047 4.95130859 10.6875 4.9375 C9.51574219 4.92589844 8.34398437 4.91429687 7.13671875 4.90234375 C3.96940805 4.85100102 3.96940805 4.85100102 1 6 C0.34 5.67 -0.32 5.34 -1 5 C-0.67 3.35 -0.34 1.7 0 0 Z " fill="#03EFF8" transform="translate(342,280)"/>
<path d="M0 0 C4 1 4 1 5.2421875 2.734375 C6.12388886 5.37038939 6.19799273 7.47627639 6.125 10.25 C6.10695313 11.14203125 6.08890625 12.0340625 6.0703125 12.953125 C6.03550781 13.96632813 6.03550781 13.96632813 6 15 C5.01 15.495 5.01 15.495 4 16 C2.68 15.34 1.36 14.68 0 14 C0 9.38 0 4.76 0 0 Z " fill="#272726" transform="translate(284,289)"/>
<path d="M0 0 C1.32 0 2.64 0 4 0 C4 0.66 4 1.32 4 2 C3.34 2 2.68 2 2 2 C2 6.62 2 11.24 2 16 C7.28 16 12.56 16 18 16 C18 16.66 18 17.32 18 18 C12.06 18 6.12 18 0 18 C0 12.06 0 6.12 0 0 Z " fill="#25D8CD" transform="translate(316,196)"/>
<path d="M0 0 C1.32 0 2.64 0 4 0 C4 5.94 4 11.88 4 18 C2.68 18 1.36 18 0 18 C0 12.06 0 6.12 0 0 Z " fill="#CAD1D5" transform="translate(312,196)"/>
<path d="M0 0 C0.66 0 1.32 0 2 0 C2 5.94 2 11.88 2 18 C-3.94 18 -9.88 18 -16 18 C-16 17.34 -16 16.68 -16 16 C-10.72 16 -5.44 16 0 16 C0 10.72 0 5.44 0 0 Z " fill="#29D4CB" transform="translate(308,196)"/>
<path d="M0 0 C0.7109375 1.7734375 0.7109375 1.7734375 1 4 C-0.3984375 5.8515625 -0.3984375 5.8515625 -2.375 7.625 C-5.07364855 10.01777659 -5.07364855 10.01777659 -7 13 C-13.65464893 14.62308511 -20.32578053 14.33484389 -27 13 C-27 12.01 -27 11.02 -27 10 C-26.360625 10.165 -25.72125 10.33 -25.0625 10.5 C-18.38664279 11.58993587 -12.83920392 11.70291897 -6.796875 8.35546875 C-3.73250334 6.04386665 -2.00171991 3.25279486 0 0 Z " fill="#0B0D15" transform="translate(293,307)"/>
<path d="M0 0 C0.33 0 0.66 0 1 0 C2.43467209 11.65022877 2.43467209 11.65022877 0.8125 16.6875 C-1.05928236 19.07563612 -2.04505397 20.28364945 -5 21 C-7.12890625 20.03125 -7.12890625 20.03125 -9 19 C-8.59007812 18.54109375 -8.18015625 18.0821875 -7.7578125 17.609375 C-7.21898437 16.99578125 -6.68015625 16.3821875 -6.125 15.75 C-5.59132813 15.14671875 -5.05765625 14.5434375 -4.5078125 13.921875 C-1.94721593 10.65810943 -0.78698218 7.86982178 -0.375 3.75 C-0.25125 2.5125 -0.1275 1.275 0 0 Z " fill="#0AEFF3" transform="translate(366,294)"/>
<path d="M0 0 C6 2 6 2 7.875 2.73046875 C15.03901945 5.40340783 22.45121207 6.15461532 30 7 C30 7.33 30 7.66 30 8 C18.4607683 9.54979462 9.76979501 8.61768646 0 2 C0 1.34 0 0.68 0 0 Z " fill="#1E1C1F" transform="translate(231,320)"/>
<path d="M0 0 C1.49080078 0.02707031 1.49080078 0.02707031 3.01171875 0.0546875 C3.77097656 0.07789063 4.53023438 0.10109375 5.3125 0.125 C4.3125 3.125 4.3125 3.125 2.421875 4.328125 C-4.00676936 7.18056985 -4.00676936 7.18056985 -7.75 6.875 C-8.389375 6.6275 -9.02875 6.38 -9.6875 6.125 C-9.375 4.25 -9.375 4.25 -8.6875 2.125 C-5.26655758 -0.15562828 -4.00562778 -0.09425007 0 0 Z " fill="#12E6EE" transform="translate(271.6875,279.875)"/>
<path d="M0 0 C3 0.125 3 0.125 4 1.125 C4.1875 3.5625 4.1875 3.5625 4 6.125 C2 8.125 2 8.125 -0.5625 8.3125 C-3 8.125 -3 8.125 -4 7.125 C-4.125 4.125 -4.125 4.125 -4 1.125 C-3 0.125 -3 0.125 0 0 Z " fill="#EAEBE9" transform="translate(272,290.875)"/>
<path d="M0 0 C3.96 0 7.92 0 12 0 C12 1.32 12 2.64 12 4 C9.6603331 5.16983345 8.16608473 5.1661241 5.5625 5.1875 C4.38880859 5.20876953 4.38880859 5.20876953 3.19140625 5.23046875 C1 5 1 5 -2 3 C-1.34 3 -0.68 3 0 3 C0 2.01 0 1.02 0 0 Z " fill="#08E3E8" transform="translate(270,314)"/>
<path d="M0 0 C3 0.125 3 0.125 4 1.125 C4.04080783 3.12458364 4.04254356 5.12545254 4 7.125 C1.125 7.75 1.125 7.75 -2 8.125 C-4 6.125 -4 6.125 -4.1875 3.5625 C-3.91067812 -0.03618446 -3.67800108 0.15325004 0 0 Z " fill="#EDEDEE" transform="translate(354,290.875)"/>
<path d="M0 0 C0.6290625 0.34933594 1.258125 0.69867188 1.90625 1.05859375 C7.40978315 3.98441785 11.76883393 5.65382411 18 6 C18 6.66 18 7.32 18 8 C11.79351012 8.33249053 7.68674354 7.54922986 2 5 C1.34 4.34 0.68 3.68 0 3 C0 2.01 0 1.02 0 0 Z " fill="#091418" transform="translate(336,313)"/>
<path d="M0 0 C0.33 0 0.66 0 1 0 C1.19916016 1.24716797 1.19916016 1.24716797 1.40234375 2.51953125 C1.57894531 3.60621094 1.75554687 4.69289063 1.9375 5.8125 C2.11152344 6.89144531 2.28554688 7.97039062 2.46484375 9.08203125 C2.93871921 12.04933356 2.93871921 12.04933356 4 15 C3.01 15 2.02 15 1 15 C0.01 12.69 -0.98 10.38 -2 8 C-6.29 7.67 -10.58 7.34 -15 7 C-15 6.67 -15 6.34 -15 6 C-10.38 6 -5.76 6 -1 6 C-0.67 4.02 -0.34 2.04 0 0 Z " fill="#0D1919" transform="translate(254,294)"/>
<path d="M0 0 C2.31329561 3.46994341 2.65378448 6.40899352 3.125 10.4375 C3.21136719 11.10587891 3.29773438 11.77425781 3.38671875 12.46289062 C3.78860492 15.68116958 4 18.74994204 4 22 C-0.10685937 17.00034512 -0.12178208 13.15246492 -0.0625 6.75 C-0.05347656 5.48671875 -0.04445312 4.2234375 -0.03515625 2.921875 C-0.02355469 1.95765625 -0.01195312 0.9934375 0 0 Z " fill="#110F10" transform="translate(223,295)"/>
<path d="M0 0 C3.5 0.125 3.5 0.125 4.5 1.125 C5.84747084 1.35575082 7.20377565 1.53653063 8.5625 1.6875 C9.861875 1.831875 11.16125 1.97625 12.5 2.125 C12.5 2.785 12.5 3.445 12.5 4.125 C8.21 4.125 3.92 4.125 -0.5 4.125 C-0.5 3.465 -0.5 2.805 -0.5 2.125 C-1.82 1.795 -3.14 1.465 -4.5 1.125 C-3.5 0.125 -3.5 0.125 0 0 Z " fill="#52D2CB" transform="translate(289.5,135.875)"/>
<path d="M0 0 C2 2 2 2 2.1953125 4.3828125 C2.17210937 5.28773438 2.14890625 6.19265625 2.125 7.125 C2.10695313 8.03507812 2.08890625 8.94515625 2.0703125 9.8828125 C2.04710937 10.58148438 2.02390625 11.28015625 2 12 C1.67 11.34 1.34 10.68 1 10 C-0.32 10 -1.64 10 -3 10 C-3.33 8.35 -3.66 6.7 -4 5 C-3.01 4.67 -2.02 4.34 -1 4 C-0.26676204 1.98491642 -0.26676204 1.98491642 0 0 Z " fill="#1F2227" transform="translate(363,292)"/>
<path d="M0 0 C0.75 1.75 0.75 1.75 1 4 C-1.25293183 6.83702526 -3.59127357 8.76046312 -7 10 C-9.75 10.125 -9.75 10.125 -12 10 C-12 9.34 -12 8.68 -12 8 C-11.20335937 7.63648438 -11.20335937 7.63648438 -10.390625 7.265625 C-6.26007376 5.30587441 -3.02889453 3.53371028 0 0 Z " fill="#06181E" transform="translate(367,310)"/>
<path d="M0 0 C0.66 0.66 1.32 1.32 2 2 C-5.23963731 8.13795337 -5.23963731 8.13795337 -11.125 8.0625 C-12.03507812 8.05347656 -12.94515625 8.04445313 -13.8828125 8.03515625 C-14.58148438 8.02355469 -15.28015625 8.01195312 -16 8 C-12.96474514 5.97649676 -11.80573798 5.67875982 -8.3125 5.375 C-7.50425781 5.30023438 -6.69601562 5.22546875 -5.86328125 5.1484375 C-4.94095703 5.07496094 -4.94095703 5.07496094 -4 5 C-4 4.34 -4 3.68 -4 3 C-2 1.375 -2 1.375 0 0 Z " fill="#041A1B" transform="translate(286,305)"/>
<path d="M0 0 C0.05389087 1.95803507 0.09274217 3.91648909 0.125 5.875 C0.14820313 6.96554687 0.17140625 8.05609375 0.1953125 9.1796875 C0 12 0 12 -2 14 C-3 13 -3 13 -3.09765625 10.27734375 C-3.08605469 9.17519531 -3.07445312 8.07304687 -3.0625 6.9375 C-3.05347656 5.83277344 -3.04445312 4.72804688 -3.03515625 3.58984375 C-3.02355469 2.73519531 -3.01195312 1.88054687 -3 1 C-1 0 -1 0 0 0 Z " fill="#DAF0F4" transform="translate(256,419)"/>
<path d="M0 0 C2.4375 0.25 2.4375 0.25 5 1 C5.66 1.99 6.32 2.98 7 4 C4 4 4 4 1 2 C1.56371414 5.26954202 2.49962266 6.82575883 5 9 C1 9 1 9 -0.8125 7.25 C-2 5 -2 5 -1.75 2.8125 C-1 1 -1 1 0 0 Z " fill="#1D1D1F" transform="translate(285,347)"/>
<path d="M0 0 C0.99 0.33 1.98 0.66 3 1 C3 1.66 3 2.32 3 3 C2.01 3.66 1.02 4.32 0 5 C0 6.134375 0 7.26875 0 8.4375 C0 12 0 12 -1.5 13.72265625 C-1.995 14.14417969 -2.49 14.56570313 -3 15 C-3.55353075 4.44191344 -3.55353075 4.44191344 0 0 Z " fill="#2F3634" transform="translate(339,289)"/>
<path d="M0 0 C0.33 0.99 0.66 1.98 1 3 C-1.35438733 4.42944945 -2.48032433 5.08661261 -5.25 4.625 C-5.8275 4.41875 -6.405 4.2125 -7 4 C-6.67 3.01 -6.34 2.02 -6 1 C-8.97 1 -11.94 1 -15 1 C-15 0.67 -15 0.34 -15 0 C-4.44191344 -1.33257403 -4.44191344 -1.33257403 0 0 Z " fill="#15DAE0" transform="translate(361,313)"/>
<path d="M0 0 C1.32 0 2.64 0 4 0 C4 0.66 4 1.32 4 2 C3.34 2 2.68 2 2 2 C2 6.62 2 11.24 2 16 C1.34 16 0.68 16 0 16 C0 10.72 0 5.44 0 0 Z " fill="#2BD2C8" transform="translate(316,196)"/>
<path d="M0 0 C0.33 0.99 0.66 1.98 1 3 C-1.17302331 6.7826702 -3.54362664 10.29970831 -7 13 C-9.25 12.75 -9.25 12.75 -11 12 C-7.25 9 -7.25 9 -5 9 C-4.731875 8.030625 -4.46375 7.06125 -4.1875 6.0625 C-3.795625 5.051875 -3.40375 4.04125 -3 3 C-2.01 2.67 -1.02 2.34 0 2 C0 1.34 0 0.68 0 0 Z " fill="#121112" transform="translate(403,310)"/>
<path d="M0 0 C0 4.29 0 8.58 0 13 C-0.99 12.67 -1.98 12.34 -3 12 C-3 8.37 -3 4.74 -3 1 C-1 0 -1 0 0 0 Z " fill="#00F3FB" transform="translate(336,292)"/>
<path d="M0 0 C2 2 2 2 2.1953125 4.3828125 C2.17210937 5.28773438 2.14890625 6.19265625 2.125 7.125 C2.10695313 8.03507812 2.08890625 8.94515625 2.0703125 9.8828125 C2.03550781 10.93082031 2.03550781 10.93082031 2 12 C1.01 12 0.02 12 -1 12 C-1.02698189 10.37509046 -1.04638757 8.75005367 -1.0625 7.125 C-1.07410156 6.22007812 -1.08570313 5.31515625 -1.09765625 4.3828125 C-1 2 -1 2 0 0 Z " fill="#2C373A" transform="translate(288,292)"/>
<path d="M0 0 C0.33 0 0.66 0 1 0 C1 2.31 1 4.62 1 7 C2.65 7 4.3 7 6 7 C4.68 7.33 3.36 7.66 2 8 C1.896875 8.763125 1.79375 9.52625 1.6875 10.3125 C0.95635961 13.17059424 0.23048087 14.15742885 -2 16 C-2.33 15.34 -2.66 14.68 -3 14 C-2.33333333 12.66666667 -1.66666667 11.33333333 -1 10 C-0.54935368 7.41467299 -0.54935368 7.41467299 -0.375 4.75 C-0.30023438 3.85796875 -0.22546875 2.9659375 -0.1484375 2.046875 C-0.09945313 1.37140625 -0.05046875 0.6959375 0 0 Z " fill="#06181A" transform="translate(371,294)"/>
<path d="M0 0 C0.33 0 0.66 0 1 0 C1.22281874 1.91503674 1.42771076 3.83216506 1.625 5.75 C1.74101562 6.81734375 1.85703125 7.8846875 1.9765625 8.984375 C2.00029475 12.03792399 1.61420985 13.46162421 0 16 C-0.33 16 -0.66 16 -1 16 C-1.09688221 10.55306686 -1.12862175 5.36095333 0 0 Z " fill="#D9E9EE" transform="translate(203,292)"/>
<path d="M0 0 C1.65 0.33 3.3 0.66 5 1 C5.75 2.75 5.75 2.75 6 5 C4.0625 7.25 4.0625 7.25 2 9 C2 6.37886292 2.31292445 4.49064888 3 2 C2.01 2.33 1.02 2.66 0 3 C0 2.01 0 1.02 0 0 Z " fill="#202022" transform="translate(337,347)"/>
<path d="M0 0 C4.29 0.99 8.58 1.98 13 3 C13 3.33 13 3.66 13 4 C11.41705218 4.05437607 9.83355744 4.09296271 8.25 4.125 C7.36828125 4.14820313 6.4865625 4.17140625 5.578125 4.1953125 C2.8864142 3.99139502 1.30095026 3.36551721 -1 2 C-0.67 1.34 -0.34 0.68 0 0 Z " fill="#072022" transform="translate(343,309)"/>
<path d="M0 0 C0.556875 0.309375 1.11375 0.61875 1.6875 0.9375 C4.73629812 2.33829914 7.64341652 3 11 3 C11 3.99 11 4.98 11 6 C8.69 6.33 6.38 6.66 4 7 C2.02 3.535 2.02 3.535 0 0 Z " fill="#0F1011" transform="translate(347,295)"/>
<path d="M0 0 C0.703125 1.76953125 0.703125 1.76953125 1 4 C-0.328125 5.88671875 -0.328125 5.88671875 -2.25 7.6875 C-2.87390625 8.28949219 -3.4978125 8.89148438 -4.140625 9.51171875 C-6 11 -6 11 -9 12 C-9.66 11.34 -10.32 10.68 -11 10 C-9.9275 9.46375 -8.855 8.9275 -7.75 8.375 C-3.87374779 6.18920261 -2.17850011 3.83416019 0 0 Z " fill="#042229" transform="translate(293,307)"/>
<path d="M0 0 C3.68754757 0.49831724 5.60490662 1.10067643 8 4 C7.34 4 6.68 4 6 4 C5.34 4.66 4.68 5.32 4 6 C2.68 5.34 1.36 4.68 0 4 C0 2.68 0 1.36 0 0 Z " fill="#2A2C31" transform="translate(352,284)"/>
<path d="M0 0 C0.33 0 0.66 0 1 0 C1 2.97 1 5.94 1 9 C2.98 9.495 2.98 9.495 5 10 C4.34 11.65 3.68 13.3 3 15 C0.03090402 11.72698081 -0.34354794 9.61934238 -0.1875 5.25 C-0.16042969 4.26515625 -0.13335937 3.2803125 -0.10546875 2.265625 C-0.07066406 1.51796875 -0.03585937 0.7703125 0 0 Z " fill="#071F27" transform="translate(261,293)"/>
<path d="M0 0 C0.99 0 1.98 0 3 0 C3 1.32 3 2.64 3 4 C4.32 4.66 5.64 5.32 7 6 C4.33333333 7.33333333 1.66666667 8.66666667 -1 10 C-0.505 9.1028125 -0.505 9.1028125 0 8.1875 C1.45243698 5.01029411 1.09566959 3.28700877 0 0 Z " fill="#1D1617" transform="translate(349,284)"/>
<path d="M0 0 C2.97 0 5.94 0 9 0 C8.67 0.99 8.34 1.98 8 3 C5.69 3.33 3.38 3.66 1 4 C0.67 2.68 0.34 1.36 0 0 Z " fill="#00F5FD" transform="translate(268,280)"/>
<path d="M0 0 C4.95 0.33 9.9 0.66 15 1 C15 1.33 15 1.66 15 2 C10.38 2.33 5.76 2.66 1 3 C0.67 2.01 0.34 1.02 0 0 Z " fill="#242225" transform="translate(246,326)"/>
<path d="M0 0 C0 0.66 0 1.32 0 2 C0.66 2 1.32 2 2 2 C2 2.66 2 3.32 2 4 C-1.63 4 -5.26 4 -9 4 C-3 0 -3 0 0 0 Z " fill="#60D4CE" transform="translate(258,144)"/>
<path d="M0 0 C3.9492568 0.55105909 7.34920174 1.38935371 11 3 C11 3.66 11 4.32 11 5 C6.12637153 4.54663921 3.60957611 3.2910841 0 0 Z " fill="#0C0C0E" transform="translate(292,353)"/>
<path d="M0 0 C2.5654594 2.5654594 2.54046087 4.47686668 3 8 C1.35 8.33 -0.3 8.66 -2 9 C-1.34 6.03 -0.68 3.06 0 0 Z " fill="#1E2422" transform="translate(339,296)"/>
<path d="M0 0 C1.32 0 2.64 0 4 0 C4 0.66 4 1.32 4 2 C4.66 2 5.32 2 6 2 C6 2.66 6 3.32 6 4 C4.02 4.66 2.04 5.32 0 6 C0 5.34 0 4.68 0 4 C0.66 4 1.32 4 2 4 C2 3.34 2 2.68 2 2 C1.34 2 0.68 2 0 2 C0 1.34 0 0.68 0 0 Z " fill="#39D5CC" transform="translate(216,468)"/>
<path d="M0 0 C-2.3125 2.5 -2.3125 2.5 -5 5 C-5.99 5 -6.98 5 -8 5 C-8 3.68 -8 2.36 -8 1 C-3.375 -1.125 -3.375 -1.125 0 0 Z " fill="#E3EAEF" transform="translate(408,363)"/>
<path d="M0 0 C1.32 0 2.64 0 4 0 C4.33 1.98 4.66 3.96 5 6 C3.0625 5.25 3.0625 5.25 1 4 C0.25 1.875 0.25 1.875 0 0 Z " fill="#020F0F" transform="translate(338,304)"/>
<path d="M0 0 C1.32 0.33 2.64 0.66 4 1 C4 1.99 4 2.98 4 4 C2.02 4.99 0.04 5.98 -2 7 C-2 6.01 -2 5.02 -2 4 C-1.34 4 -0.68 4 0 4 C0 2.68 0 1.36 0 0 Z " fill="#2F2E2F" transform="translate(346,284)"/>
<path d="M0 0 C2.64 1.98 5.28 3.96 8 6 C7.67 6.66 7.34 7.32 7 8 C4.13792848 6.71700242 1.9754912 5.469364 0 3 C0 2.01 0 1.02 0 0 Z " fill="#051E28" transform="translate(258,310)"/>
<path d="M0 0 C1.32 0 2.64 0 4 0 C4 1.32 4 2.64 4 4 C0.37 3.67 -3.26 3.34 -7 3 C-7 2.67 -7 2.34 -7 2 C-4.69 2 -2.38 2 0 2 C0 1.34 0 0.68 0 0 Z " fill="#17484D" transform="translate(354,276)"/>
<path d="M0 0 C2.97 0 5.94 0 9 0 C9.33 1.32 9.66 2.64 10 4 C6.7 3.01 3.4 2.02 0 1 C0 0.67 0 0.34 0 0 Z " fill="#62D5D1" transform="translate(370,226)"/>
<path d="M0 0 C0.91525561 3.08898768 1 5.79359799 1 9 C1.33 9.99 1.66 10.98 2 12 C1.34 12.66 0.68 13.32 0 14 C-1.24377393 11.51245214 -1.13306235 9.77344699 -1.125 7 C-1.12757813 6.113125 -1.13015625 5.22625 -1.1328125 4.3125 C-1 2 -1 2 0 0 Z " fill="#D9EAF0" transform="translate(301,176)"/>
<path d="M0 0 C0.66 0 1.32 0 2 0 C2 0.66 2 1.32 2 2 C3.32 2.33 4.64 2.66 6 3 C5.01 3.33 4.02 3.66 3 4 C3 4.66 3 5.32 3 6 C2.01 5.67 1.02 5.34 0 5 C0 3.35 0 1.7 0 0 Z " fill="#05E9F0" transform="translate(336,308)"/>
<path d="M0 0 C1.32 0.33 2.64 0.66 4 1 C0.535 3.97 0.535 3.97 -3 7 C-3.66 6.67 -4.32 6.34 -5 6 C-4.67 5.34 -4.34 4.68 -4 4 C-3.34 4 -2.68 4 -2 4 C-2 3.34 -2 2.68 -2 2 C-1.34 2 -0.68 2 0 2 C0 1.34 0 0.68 0 0 Z " fill="#4ED8CE" transform="translate(200,180)"/>
<path d="M0 0 C5.75 1.875 5.75 1.875 8 3 C8 3.66 8 4.32 8 5 C4.62537285 4.45276317 2.91765 3.9451 0 2 C0 1.34 0 0.68 0 0 Z " fill="#110F12" transform="translate(231,320)"/>
<path d="M0 0 C5.94 0.99 5.94 0.99 12 2 C12 2.33 12 2.66 12 3 C8.04 3 4.08 3 0 3 C0 2.01 0 1.02 0 0 Z " fill="#01191E" transform="translate(266,317)"/>
<path d="M0 0 C0.66 0.33 1.32 0.66 2 1 C-0.97 3.475 -0.97 3.475 -4 6 C-5.32 5.34 -6.64 4.68 -8 4 C-6.71349294 3.30289269 -5.42059335 2.61757124 -4.125 1.9375 C-3.40570313 1.55464844 -2.68640625 1.17179687 -1.9453125 0.77734375 C-1.30335938 0.52082031 -0.66140625 0.26429688 0 0 Z " fill="#E9EFF5" transform="translate(396,432)"/>
<path d="M0 0 C3.96 1.98 3.96 1.98 8 4 C8 4.33 8 4.66 8 5 C5.125 5.125 5.125 5.125 2 5 C1.34 4.34 0.68 3.68 0 3 C0 2.01 0 1.02 0 0 Z " fill="#042229" transform="translate(336,313)"/>
<path d="M0 0 C3.3 0.33 6.6 0.66 10 1 C10 1.33 10 1.66 10 2 C7.36 2 4.72 2 2 2 C2 2.99 2 3.98 2 5 C0.68 4.67 -0.64 4.34 -2 4 C-1.01 4 -0.02 4 1 4 C0.67 2.68 0.34 1.36 0 0 Z " fill="#25CDD4" transform="translate(268,312)"/>
<path d="M0 0 C2 3 2 3 2 7 C1.34 7 0.68 7 0 7 C-0.33 8.32 -0.66 9.64 -1 11 C-1.14285714 3.57142857 -1.14285714 3.57142857 0 0 Z " fill="#66D4D1" transform="translate(468,255)"/>
<path d="M0 0 C1.65 0.33 3.3 0.66 5 1 C3.3125 3.0625 3.3125 3.0625 1 5 C-1.75 4.75 -1.75 4.75 -4 4 C-2.68 3.67 -1.36 3.34 0 3 C0 2.01 0 1.02 0 0 Z " fill="#3B3A3D" transform="translate(357,287)"/>
<path d="M0 0 C2 2 2 2 2 6 C1.34 6 0.68 6 0 6 C0 6.66 0 7.32 0 8 C-0.66 8 -1.32 8 -2 8 C-1.33333333 5.33333333 -0.66666667 2.66666667 0 0 Z " fill="#5DD2D1" transform="translate(466,248)"/>
<path d="M0 0 C2.97 1.98 2.97 1.98 6 4 C5.67 4.66 5.34 5.32 5 6 C4.01 6 3.02 6 2 6 C2 5.34 2 4.68 2 4 C1.34 4 0.68 4 0 4 C0 2.68 0 1.36 0 0 Z " fill="#51D5CE" transform="translate(418,174)"/>
<path d="M0 0 C0.66 0.33 1.32 0.66 2 1 C1.67 1.99 1.34 2.98 1 4 C-1.31 4 -3.62 4 -6 4 C-4.03617993 2.49440461 -2.21736634 1.10868317 0 0 Z " fill="#62D3CA" transform="translate(247,148)"/>
</svg>
