<?xml version="1.0" encoding="UTF-8"?>
<svg version="1.1" xmlns="http://www.w3.org/2000/svg" width="626" height="626">
<path d="M0 0 C206.58 0 413.16 0 626 0 C626 206.58 626 413.16 626 626 C419.42 626 212.84 626 0 626 C0 419.42 0 212.84 0 0 Z " fill="#FEFEFE" transform="translate(0,0)"/>
<path d="M0 0 C0.84103271 0.10997314 1.68206543 0.21994629 2.54858398 0.33325195 C7.39484801 1.02917799 11.8298813 2.15049111 16.44311523 3.78393555 C18.70293117 4.56785299 20.97080257 5.24024992 23.2734375 5.88671875 C34.45713334 9.05603216 45.06842326 12.9568709 55.68774414 17.68115234 C57.49374783 18.47710806 59.31638477 19.23505989 61.140625 19.98828125 C75.1984844 26.22761752 88.33174622 34.45136061 100.6875 43.5625 C101.27692383 43.99498047 101.86634766 44.42746094 102.47363281 44.87304688 C118.92872585 57.06539993 133.97863888 71.52562287 146.6875 87.5625 C147.50605469 88.58730469 148.32460938 89.61210937 149.16796875 90.66796875 C162.33389971 107.32810249 173.48097145 125.96995017 181.6875 145.5625 C181.99397461 146.29210937 182.30044922 147.02171875 182.61621094 147.7734375 C207.29185074 207.28385855 206.73563083 275.00349448 182.77734375 334.57421875 C174.90208024 353.58360304 165.20044299 371.18814101 152.6875 387.5625 C151.6046875 389.04363281 151.6046875 389.04363281 150.5 390.5546875 C138.841317 406.24021824 124.97893291 420.42517466 109.6875 432.5625 C108.23730469 433.738125 108.23730469 433.738125 106.7578125 434.9375 C56.93562957 474.49098873 -8.19527381 492.21465372 -71.21484375 485.19140625 C-126.53124259 478.54922782 -176.08145996 455.15313066 -216.3125 416.5625 C-217.54806641 415.38880859 -217.54806641 415.38880859 -218.80859375 414.19140625 C-223.60487382 409.52812528 -227.89765413 404.58602666 -232.0703125 399.359375 C-233.51645838 397.55547178 -234.98888093 395.77217676 -236.4921875 394.015625 C-242.79372118 386.61524737 -247.99684686 378.66079721 -253.13769531 370.43505859 C-254.07377339 368.94301395 -255.0296641 367.46340432 -255.9921875 365.98828125 C-265.87102164 350.44446596 -272.43058723 332.91955548 -278.3125 315.5625 C-278.72242188 314.38429688 -279.13234375 313.20609375 -279.5546875 311.9921875 C-299.2438305 252.31424243 -290.03508568 184.8767814 -262.79296875 129.34375 C-260.47081989 124.77287451 -257.93780488 120.36451862 -255.25 116 C-254.77957275 115.23550537 -254.30914551 114.47101074 -253.82446289 113.68334961 C-245.95994844 101.049555 -237.57914119 89.35147907 -227.3125 78.5625 C-226.15928431 77.23554658 -225.01288856 75.90261993 -223.875 74.5625 C-216.10528891 65.66463413 -207.60277583 57.8420038 -198.3125 50.5625 C-196.87003906 49.39460938 -196.87003906 49.39460938 -195.3984375 48.203125 C-177.33499467 33.84383121 -157.10935014 22.42919346 -135.8125 13.625 C-134.92908936 13.25930908 -134.04567871 12.89361816 -133.13549805 12.5168457 C-127.78148495 10.37012085 -122.4320209 8.67963625 -116.83789062 7.27124023 C-114.23602917 6.54103878 -111.81468612 5.57833085 -109.3125 4.5625 C-74.39681441 -6.32393351 -35.75270227 -4.83609892 0 0 Z " fill="#BD1723" transform="translate(357.3125,71.4375)"/>
<path d="M0 0 C11.58011594 9.0818277 18.5733681 18.96533296 23 33 C23 33.66 23 34.32 23 35 C22.31317642 35.01030746 21.62635284 35.02061493 20.91871643 35.03123474 C13.79784143 35.13905595 6.67709926 35.25367283 -0.44360352 35.37231445 C-3.10438265 35.4157418 -5.76519107 35.4574109 -8.42602539 35.49731445 C-12.24113815 35.55482872 -16.05610242 35.61857668 -19.87109375 35.68359375 C-21.66793861 35.70866249 -21.66793861 35.70866249 -23.50108337 35.73423767 C-25.15268211 35.7641555 -25.15268211 35.7641555 -26.83764648 35.79467773 C-28.2999192 35.81799416 -28.2999192 35.81799416 -29.79173279 35.84178162 C-31.97418568 35.75593055 -31.97418568 35.75593055 -33 37 C-33.2500773 39.45809998 -33.2500773 39.45809998 -33 42 C-30.41074331 44.58925669 -29.32930568 44.26946157 -25.72412109 44.31884766 C-24.6231308 44.33871735 -23.5221405 44.35858704 -22.38778687 44.37905884 C-21.19505157 44.39061005 -20.00231628 44.40216125 -18.7734375 44.4140625 C-17.55548492 44.43342865 -16.33753235 44.4527948 -15.08267212 44.4727478 C-11.1801867 44.53268215 -7.27767201 44.57898471 -3.375 44.625 C-0.7343619 44.66316699 1.90626357 44.70221795 4.546875 44.7421875 C11.0311479 44.83839518 17.51547908 44.92237508 24 45 C24 49.95 24 54.9 24 60 C-4.215 60.495 -4.215 60.495 -33 61 C-33 62.98 -33 64.96 -33 67 C-30.39443832 69.60556168 -29.26380117 69.26999371 -25.63232422 69.31884766 C-24.51131317 69.33871735 -23.39030212 69.35858704 -22.23532104 69.37905884 C-21.02071198 69.39061005 -19.80610291 69.40216125 -18.5546875 69.4140625 C-17.31453888 69.43342865 -16.07439026 69.4527948 -14.79666138 69.4727478 C-11.49888221 69.5224881 -8.20113861 69.56372477 -4.90319824 69.60089111 C-1.53822666 69.64089002 1.82657392 69.69200103 5.19140625 69.7421875 C11.79417055 69.83839801 18.39699208 69.92237695 25 70 C25 74.95 25 79.9 25 85 C22.47110107 85.03758423 22.47110107 85.03758423 19.89111328 85.07592773 C14.3270568 85.15975026 8.76308282 85.24801935 3.19914436 85.33933926 C-0.17498367 85.39455469 -3.5491204 85.44797243 -6.92333984 85.49731445 C-10.80054266 85.55489667 -14.6776023 85.61862566 -18.5546875 85.68359375 C-19.76929657 85.70030624 -20.98390564 85.71701874 -22.23532104 85.73423767 C-23.35633209 85.75418289 -24.47734314 85.77412811 -25.63232422 85.79467773 C-26.62271698 85.81022202 -27.61310974 85.8257663 -28.6335144 85.84178162 C-31.01828543 85.84807978 -31.01828543 85.84807978 -33 87 C-33.16687448 89.41645782 -33.16687448 89.41645782 -33 92 C-30.41074331 94.58925669 -29.32930568 94.26946157 -25.72412109 94.31884766 C-24.6231308 94.33871735 -23.5221405 94.35858704 -22.38778687 94.37905884 C-21.19505157 94.39061005 -20.00231628 94.40216125 -18.7734375 94.4140625 C-17.55548492 94.43342865 -16.33753235 94.4527948 -15.08267212 94.4727478 C-11.1801867 94.53268215 -7.27767201 94.57898471 -3.375 94.625 C-0.7343619 94.66316699 1.90626357 94.70221795 4.546875 94.7421875 C11.0311479 94.83839518 17.51547908 94.92237508 24 95 C24 99.95 24 104.9 24 110 C-4.215 110.495 -4.215 110.495 -33 111 C-33 112.98 -33 114.96 -33 117 C-30.39443832 119.60556168 -29.26380117 119.26999371 -25.63232422 119.31884766 C-24.51131317 119.33871735 -23.39030212 119.35858704 -22.23532104 119.37905884 C-21.02071198 119.39061005 -19.80610291 119.40216125 -18.5546875 119.4140625 C-17.31453888 119.43342865 -16.07439026 119.4527948 -14.79666138 119.4727478 C-11.49888221 119.5224881 -8.20113861 119.56372477 -4.90319824 119.60089111 C-1.53822666 119.64089002 1.82657392 119.69200103 5.19140625 119.7421875 C11.79417055 119.83839801 18.39699208 119.92237695 25 120 C25 124.95 25 129.9 25 135 C-3.71 135.495 -3.71 135.495 -33 136 C-33 137.98 -33 139.96 -33 142 C-30.41074331 144.58925669 -29.32930568 144.26946157 -25.72412109 144.31884766 C-24.6231308 144.33871735 -23.5221405 144.35858704 -22.38778687 144.37905884 C-21.19505157 144.39061005 -20.00231628 144.40216125 -18.7734375 144.4140625 C-17.55548492 144.43342865 -16.33753235 144.4527948 -15.08267212 144.4727478 C-11.1801867 144.53268215 -7.27767201 144.57898471 -3.375 144.625 C-0.7343619 144.66316699 1.90626357 144.70221795 4.546875 144.7421875 C11.03113826 144.83839504 17.51547708 144.92340176 24 145 C24.04247867 147.53663757 24.07332254 150.07255075 24.09765625 152.609375 C24.11074829 153.32013184 24.12384033 154.03088867 24.1373291 154.76318359 C24.23653142 168.58801853 17.14059041 180.9736496 7.8125 190.8125 C2.37607472 195.96670648 -3.25966138 199.75758874 -10 203 C-10.85207031 203.433125 -11.70414062 203.86625 -12.58203125 204.3125 C-24.07725496 209.15968071 -40.8798244 209.0644981 -52.75 205.4375 C-55.41796875 204.3125 -55.41796875 204.3125 -58 203 C-58.98613281 202.525625 -59.97226562 202.05125 -60.98828125 201.5625 C-75.22846238 194.03528863 -85.56753841 181.78392316 -90.58123779 166.50204468 C-92.27076608 160.72622439 -92.40950965 155.29946737 -92.35644531 149.31494141 C-92.35848969 148.1915889 -92.36053406 147.06823639 -92.36264038 145.9108429 C-92.36563046 142.22424646 -92.34721959 138.53810528 -92.328125 134.8515625 C-92.32506333 132.27143464 -92.32319031 129.69130511 -92.32244873 127.11117554 C-92.31785625 121.71304532 -92.30387058 116.31507421 -92.28125 110.91699219 C-92.25241267 104.02203569 -92.2420258 97.12718229 -92.2375679 90.23217201 C-92.2331358 83.62612145 -92.21786295 77.02009716 -92.203125 70.4140625 C-92.20124428 69.16566212 -92.19936356 67.91726173 -92.19742584 66.63103104 C-92.19049378 63.06859719 -92.17682868 59.50625242 -92.16113281 55.94384766 C-92.16001495 54.90866501 -92.15889709 53.87348236 -92.15774536 52.80693054 C-92.04963054 34.12871287 -88.88088821 20.4592743 -75.6484375 6.5234375 C-55.04872943 -13.02993619 -23.69974589 -16.21744726 0 0 Z " fill="#FDFBFB" transform="translate(347,146)"/>
<path d="M0 0 C3.02508145 1.73602105 5.41790069 3.83580137 7 7 C7.32322842 9.79151817 7.60806729 12.57815727 7.875 15.375 C10.24342787 37.49341204 18.87668534 56.82326001 35.9609375 71.6484375 C55.37701891 86.67219201 78.37649588 90.50344512 102.4375 87.4375 C121.83435943 83.44486178 139.50349625 71.19366248 150.8984375 55.2890625 C159.04190497 42.54408182 163.81674049 28.5119819 164.4375 13.375 C164.62705285 9.2190537 164.76556113 6.45751821 167.4375 3.1875 C170.98591849 0.15836227 173.1803253 -0.39372258 177.89453125 -0.359375 C181.61593453 0.27581814 183.40312849 2.33979016 186 5 C191.30379948 15.60759896 185.39732115 33.52074091 182 44 C177.81566611 55.50632485 171.54312844 65.42509341 164 75 C163.04867187 76.22783203 163.04867187 76.22783203 162.078125 77.48046875 C148.28759669 94.12929033 125.5442669 107.42552785 104 110 C101.69 110 99.38 110 97 110 C97 134.09 97 158.18 97 183 C113.51432864 182.8023882 113.51432864 182.8023882 130.02783203 182.54956055 C132.10447911 182.53495184 134.18114055 182.52221208 136.2578125 182.51171875 C137.32829834 182.48613892 138.39878418 182.46055908 139.50170898 182.4342041 C147.98628795 182.42924931 147.98628795 182.42924931 151.67138672 185.40551758 C154.89959275 189.00230365 155.34701208 191.09590601 155.28515625 195.96484375 C154.83321304 199.19035622 153.31988026 200.80900197 151 203 C147.89145156 204.90251499 145.54905041 205.25376019 141.92776489 205.26742554 C140.9044104 205.27595551 139.88105591 205.28448547 138.82669067 205.29327393 C137.70970795 205.29236755 136.59272522 205.29146118 135.44189453 205.29052734 C134.26101257 205.29724457 133.08013062 205.30396179 131.86346436 205.31088257 C128.62782424 205.32662458 125.3923382 205.33323755 122.15666437 205.33451414 C120.13373753 205.33593685 118.1108375 205.34020871 116.08791733 205.34550858 C109.02653041 205.36400598 101.96521894 205.37217958 94.90380859 205.37060547 C88.3281084 205.36940421 81.7527365 205.39050391 75.17711937 205.4220928 C69.52602064 205.44827007 63.87502904 205.45897216 58.22387016 205.45769465 C54.85113661 205.45718542 51.47869488 205.46284614 48.10602188 205.48405075 C44.34270171 205.50362928 40.58022811 205.49790366 36.81689453 205.48583984 C35.70396027 205.49707886 34.591026 205.50831787 33.44436646 205.51989746 C27.32738968 205.4700282 23.61208092 205.16891443 19 201 C16.54082414 197.3112362 16.18408063 194.2815571 17 190 C18.74450506 186.9779206 20.83302164 184.58348918 24 183 C25.63417595 182.9097165 27.27202837 182.88244342 28.90869141 182.88647461 C29.94388916 182.88659546 30.97908691 182.88671631 32.0456543 182.88684082 C33.136604 182.89195679 34.22755371 182.89707275 35.3515625 182.90234375 C36.3521167 182.90335083 37.3526709 182.90435791 38.38354492 182.90539551 C42.13070823 182.91063808 45.87785523 182.92459928 49.625 182.9375 C57.99875 182.958125 66.3725 182.97875 75 183 C75 158.91 75 134.82 75 110 C72.36 110 69.72 110 67 110 C57.84115861 108.25777619 49.28995618 105.25030638 41 101 C40.08605469 100.54753906 39.17210937 100.09507812 38.23046875 99.62890625 C31.4740573 96.14203097 25.7900788 91.90006669 20 87 C19.40832031 86.55398438 18.81664062 86.10796875 18.20703125 85.6484375 C0.40523512 71.86367375 -11.00882807 47.24193583 -14.5546875 25.6171875 C-16.45762432 10.15999898 -16.45762432 10.15999898 -13.953125 4.73046875 C-10.09208893 0.0631575 -5.86214434 -1.00058864 0 0 Z " fill="#FBF9F9" transform="translate(227,285)"/>
<path d="M0 0 C2.875 0.75 2.875 0.75 3.875 1.75 C3.97419648 3.14931231 4.00422517 4.55359682 4.00642776 5.95641899 C4.01026891 6.86920958 4.01411005 7.78200018 4.0180676 8.72245109 C4.01720112 9.73692034 4.01633463 10.7513896 4.01544189 11.79660034 C4.01841302 12.86522879 4.02138414 13.93385723 4.0244453 15.03486836 C4.03317457 18.64548639 4.03464409 22.25607144 4.03613281 25.86669922 C4.04075797 28.44322786 4.04578222 31.01975581 4.05117798 33.59628296 C4.06478077 40.61686069 4.07078905 47.63743273 4.07518864 54.65802145 C4.0779478 59.03859803 4.08218455 63.41917239 4.08669281 67.79974747 C4.09888805 79.91928659 4.10918684 92.03882393 4.1125679 104.15836906 C4.11278747 104.93459341 4.11300703 105.71081775 4.11323325 106.51056404 C4.11345153 107.28868593 4.11366981 108.06680783 4.1138947 108.86850917 C4.11433817 110.44537981 4.11478474 112.02225045 4.11523438 113.59912109 C4.11556652 114.77240405 4.11556652 114.77240405 4.11590537 115.96938969 C4.11985472 128.64818434 4.13731174 141.32692156 4.1605939 154.00569402 C4.18428374 167.01105518 4.19676867 180.0163875 4.19793582 193.0217706 C4.19885392 200.32855995 4.20464005 207.6352745 4.22275543 214.9420433 C4.23972735 221.81200282 4.24142679 228.68181786 4.23261642 235.55179214 C4.23184219 238.07902659 4.23623913 240.60626846 4.24607468 243.13348389 C4.25867741 246.57230602 4.25298109 250.01061478 4.24249268 253.44943237 C4.25054908 254.45944018 4.25860548 255.46944799 4.26690602 256.5100621 C4.26031618 257.42806819 4.25372633 258.34607427 4.2469368 259.29189873 C4.24753389 260.08611131 4.24813097 260.88032388 4.24874616 261.69860351 C3.77759623 264.28462424 2.97074904 265.20127567 0.875 266.75 C-2.46692692 266.50546876 -3.73043557 266.14456443 -6.125 263.75 C-6.376849 261.83151537 -6.376849 261.83151537 -6.37947559 259.43615055 C-6.38530779 258.52485231 -6.39113998 257.61355406 -6.39714891 256.67464072 C-6.39336958 255.66697525 -6.38959026 254.65930979 -6.38569641 253.62110901 C-6.38952196 252.55570969 -6.39334751 251.49031037 -6.39728898 250.39262623 C-6.40766257 246.79889234 -6.40361857 243.20531692 -6.3996582 239.61157227 C-6.40400226 237.04474743 -6.40918438 234.47792389 -6.41514587 231.91110229 C-6.42791919 225.64850995 -6.4296833 219.38596042 -6.42734561 213.12335724 C-6.4255652 208.03475239 -6.42730612 202.94616058 -6.43157005 197.8575573 C-6.43216524 197.13432516 -6.43276043 196.41109303 -6.43337366 195.66594477 C-6.43458536 194.19686803 -6.4357995 192.72779129 -6.43701603 191.25871455 C-6.44790174 177.4701997 -6.44572423 163.68170929 -6.43963119 149.89319306 C-6.43446124 137.2694232 -6.44571767 124.64573048 -6.46472941 112.02197588 C-6.48408522 99.07081864 -6.49236777 86.11969793 -6.48860615 73.16852611 C-6.48669065 65.89305677 -6.48921547 58.61765309 -6.50332069 51.34219551 C-6.51644631 44.50258205 -6.51400521 37.6631259 -6.50090981 30.82351303 C-6.49853292 28.30756898 -6.50131815 25.79161421 -6.50953293 23.27568245 C-6.51990818 19.85223026 -6.51197403 16.42930709 -6.4992218 13.00587463 C-6.50659609 12.00043989 -6.51397037 10.99500515 -6.52156812 9.95910269 C-6.51436158 9.0451967 -6.50715503 8.1312907 -6.49973011 7.18969059 C-6.49978513 6.39905785 -6.49984014 5.6084251 -6.49989682 4.79383379 C-5.75368099 0.72567148 -3.99033251 -0.3192266 0 0 Z " fill="#FBFCFC" transform="translate(168.125,174.25)"/>
<path d="M0 0 C2.4375 0.8125 2.4375 0.8125 4.4375 2.8125 C4.689349 4.73098463 4.689349 4.73098463 4.69197559 7.12634945 C4.69780779 8.03764769 4.70363998 8.94894594 4.70964891 9.88785928 C4.70586958 10.89552475 4.70209026 11.90319021 4.69819641 12.94139099 C4.70202196 14.00679031 4.70584751 15.07218963 4.70978898 16.16987377 C4.72016257 19.76360766 4.71611857 23.35718308 4.7121582 26.95092773 C4.71650226 29.51775257 4.72168438 32.08457611 4.72764587 34.65139771 C4.74041919 40.91399005 4.7421833 47.17653958 4.73984561 53.43914276 C4.7380652 58.52774761 4.73980612 63.61633942 4.74407005 68.7049427 C4.74496284 69.78979091 4.74496284 69.78979091 4.74587366 70.89655523 C4.74708536 72.36563197 4.7482995 73.83470871 4.74951603 75.30378545 C4.76040174 89.0923003 4.75822423 102.88079071 4.75213119 116.66930694 C4.74696124 129.2930768 4.75821767 141.91676952 4.77722941 154.54052412 C4.79658522 167.49168136 4.80486777 180.44280207 4.80110615 193.39397389 C4.79919065 200.66944323 4.80171547 207.94484691 4.81582069 215.22030449 C4.82894631 222.05991795 4.82650521 228.8993741 4.81340981 235.73898697 C4.81103292 238.25493102 4.81381815 240.77088579 4.82203293 243.28681755 C4.83240818 246.71026974 4.82447403 250.13319291 4.8117218 253.55662537 C4.81909609 254.56206011 4.82647037 255.56749485 4.83406812 256.60339731 C4.82686158 257.5173033 4.81965503 258.4312093 4.81223011 259.37280941 C4.81228513 260.16344215 4.81234014 260.9540749 4.81239682 261.76866621 C4.33662271 264.36245507 3.56080403 265.27974321 1.4375 266.8125 C-3.99728261 266.37771739 -3.99728261 266.37771739 -5.5625 264.8125 C-5.66169648 263.41318769 -5.69172517 262.00890318 -5.69392776 260.60608101 C-5.69776891 259.69329042 -5.70161005 258.78049982 -5.7055676 257.84004891 C-5.70426787 256.31834503 -5.70426787 256.31834503 -5.70294189 254.76589966 C-5.70591302 253.69727121 -5.70888414 252.62864277 -5.7119453 251.52763164 C-5.72067457 247.91701361 -5.72214409 244.30642856 -5.72363281 240.69580078 C-5.72825797 238.11927214 -5.73328222 235.54274419 -5.73867798 232.96621704 C-5.75228077 225.94563931 -5.75828905 218.92506727 -5.76268864 211.90447855 C-5.7654478 207.52390197 -5.76968455 203.14332761 -5.77419281 198.76275253 C-5.78638805 186.64321341 -5.79668684 174.52367607 -5.8000679 162.40413094 C-5.80028747 161.62790659 -5.80050703 160.85168225 -5.80073325 160.05193596 C-5.80095153 159.27381407 -5.80116981 158.49569217 -5.8013947 157.69399083 C-5.80183817 156.11712019 -5.80228474 154.54024955 -5.80273438 152.96337891 C-5.8029558 152.18119027 -5.80317723 151.39900163 -5.80340537 150.59311031 C-5.80735472 137.91431566 -5.82481174 125.23557844 -5.8480939 112.55680598 C-5.87178374 99.55144482 -5.88426867 86.5461125 -5.88543582 73.5407294 C-5.88635392 66.23394005 -5.89214005 58.9272255 -5.91025543 51.6204567 C-5.92722735 44.75049718 -5.92892679 37.88068214 -5.92011642 31.01070786 C-5.91934219 28.48347341 -5.92373913 25.95623154 -5.93357468 23.42901611 C-5.94617741 19.99019398 -5.94048109 16.55188522 -5.92999268 13.11306763 C-5.93804908 12.10305982 -5.94610548 11.09305201 -5.95440602 10.0524379 C-5.94781618 9.13443181 -5.94122633 8.21642573 -5.9344368 7.27060127 C-5.93503389 6.47638869 -5.93563097 5.68217612 -5.93624616 4.86389649 C-5.2736206 1.22691528 -3.67093603 -0.26860508 0 0 Z " fill="#FBFEFC" transform="translate(459.5625,174.1875)"/>
<path d="M0 0 C1.63244057 1.07268524 1.63244057 1.07268524 3 3 C3.29457837 5.48718553 3.40495656 7.72444886 3.38095093 10.21203613 C3.3856309 10.95160569 3.39031087 11.69117524 3.39513266 12.45315599 C3.40712581 14.9383526 3.39760885 17.42300215 3.38818359 19.90820312 C3.39224739 21.68700992 3.39758818 23.46581418 3.40411377 25.24461365 C3.41781609 30.08132273 3.41247672 34.91784031 3.40297651 39.75455284 C3.395395 44.81004742 3.40242132 49.86552531 3.40713501 54.92102051 C3.41259697 63.4117325 3.40538941 71.90236628 3.39111328 80.39306641 C3.37478593 90.217337 3.38007413 100.04142083 3.3965925 109.86568689 C3.41019483 118.29206777 3.41213316 126.71839233 3.40427649 135.14478064 C3.39959308 140.18123277 3.39899344 145.21759705 3.40888596 150.25404358 C3.41753514 154.98841685 3.41157131 159.72254871 3.39420319 164.45689583 C3.39022736 166.19719606 3.39139103 167.93751651 3.39799118 169.67780876 C3.40615375 172.04813722 3.39594997 174.41768552 3.38095093 176.78796387 C3.39098918 177.828179 3.39098918 177.828179 3.40123022 178.88940859 C3.36624369 181.72749849 3.3010246 183.57576311 1.63244057 185.92731476 C-0.71975496 187.47295475 -2.24667361 187.41299896 -5 187 C-6.63244057 185.92731476 -6.63244057 185.92731476 -8 184 C-8.29457837 181.51281447 -8.40495656 179.27555114 -8.38095093 176.78796387 C-8.3856309 176.04839431 -8.39031087 175.30882476 -8.39513266 174.54684401 C-8.40712581 172.0616474 -8.39760885 169.57699785 -8.38818359 167.09179688 C-8.39224739 165.31299008 -8.39758818 163.53418582 -8.40411377 161.75538635 C-8.41781609 156.91867727 -8.41247672 152.08215969 -8.40297651 147.24544716 C-8.395395 142.18995258 -8.40242132 137.13447469 -8.40713501 132.07897949 C-8.41259697 123.5882675 -8.40538941 115.09763372 -8.39111328 106.60693359 C-8.37478593 96.782663 -8.38007413 86.95857917 -8.3965925 77.13431311 C-8.41019483 68.70793223 -8.41213316 60.28160767 -8.40427649 51.85521936 C-8.39959308 46.81876723 -8.39899344 41.78240295 -8.40888596 36.74595642 C-8.41753514 32.01158315 -8.41157131 27.27745129 -8.39420319 22.54310417 C-8.39022736 20.80280394 -8.39139103 19.06248349 -8.39799118 17.32219124 C-8.40615375 14.95186278 -8.39594997 12.58231448 -8.38095093 10.21203613 C-8.38764309 9.51855937 -8.39433526 8.82508262 -8.40123022 8.11059141 C-8.36624369 5.27250151 -8.3010246 3.42423689 -6.63244057 1.07268524 C-4.28024504 -0.47295475 -2.75332639 -0.41299896 0 0 Z " fill="#FAF4F3" transform="translate(488,214)"/>
<path d="M0 0 C1.63244057 1.07268524 1.63244057 1.07268524 3 3 C3.29457837 5.48718553 3.40495656 7.72444886 3.38095093 10.21203613 C3.3856309 10.95160569 3.39031087 11.69117524 3.39513266 12.45315599 C3.40712581 14.9383526 3.39760885 17.42300215 3.38818359 19.90820312 C3.39224739 21.68700992 3.39758818 23.46581418 3.40411377 25.24461365 C3.41781609 30.08132273 3.41247672 34.91784031 3.40297651 39.75455284 C3.395395 44.81004742 3.40242132 49.86552531 3.40713501 54.92102051 C3.41259697 63.4117325 3.40538941 71.90236628 3.39111328 80.39306641 C3.37478593 90.217337 3.38007413 100.04142083 3.3965925 109.86568689 C3.41019483 118.29206777 3.41213316 126.71839233 3.40427649 135.14478064 C3.39959308 140.18123277 3.39899344 145.21759705 3.40888596 150.25404358 C3.41753514 154.98841685 3.41157131 159.72254871 3.39420319 164.45689583 C3.39022736 166.19719606 3.39139103 167.93751651 3.39799118 169.67780876 C3.40615375 172.04813722 3.39594997 174.41768552 3.38095093 176.78796387 C3.39098918 177.828179 3.39098918 177.828179 3.40123022 178.88940859 C3.36624369 181.72749849 3.3010246 183.57576311 1.63244057 185.92731476 C-0.71975496 187.47295475 -2.24667361 187.41299896 -5 187 C-6.63244057 185.92731476 -6.63244057 185.92731476 -8 184 C-8.29457837 181.51281447 -8.40495656 179.27555114 -8.38095093 176.78796387 C-8.3856309 176.04839431 -8.39031087 175.30882476 -8.39513266 174.54684401 C-8.40712581 172.0616474 -8.39760885 169.57699785 -8.38818359 167.09179688 C-8.39224739 165.31299008 -8.39758818 163.53418582 -8.40411377 161.75538635 C-8.41781609 156.91867727 -8.41247672 152.08215969 -8.40297651 147.24544716 C-8.395395 142.18995258 -8.40242132 137.13447469 -8.40713501 132.07897949 C-8.41259697 123.5882675 -8.40538941 115.09763372 -8.39111328 106.60693359 C-8.37478593 96.782663 -8.38007413 86.95857917 -8.3965925 77.13431311 C-8.41019483 68.70793223 -8.41213316 60.28160767 -8.40427649 51.85521936 C-8.39959308 46.81876723 -8.39899344 41.78240295 -8.40888596 36.74595642 C-8.41753514 32.01158315 -8.41157131 27.27745129 -8.39420319 22.54310417 C-8.39022736 20.80280394 -8.39139103 19.06248349 -8.39799118 17.32219124 C-8.40615375 14.95186278 -8.39594997 12.58231448 -8.38095093 10.21203613 C-8.38764309 9.51855937 -8.39433526 8.82508262 -8.40123022 8.11059141 C-8.36624369 5.27250151 -8.3010246 3.42423689 -6.63244057 1.07268524 C-4.28024504 -0.47295475 -2.75332639 -0.41299896 0 0 Z " fill="#FAF4F4" transform="translate(143,214)"/>
<path d="M0 0 C1.63244057 1.07547855 1.63244057 1.07547855 3 3 C3.37752342 6.16909695 3.37752342 6.16909695 3.38095093 10.16734314 C3.3856309 10.90212358 3.39031087 11.63690401 3.39513266 12.39395052 C3.4071255 14.86299481 3.39760894 17.33148843 3.38818359 19.80053711 C3.39224744 21.56786931 3.39758826 23.33519898 3.40411377 25.1025238 C3.4178165 29.90830968 3.41247628 34.71390284 3.40297651 39.51969218 C3.39539402 44.54402238 3.40242171 49.5683358 3.40713501 54.59266663 C3.41259718 63.03210418 3.40538937 71.47146305 3.39111328 79.91088867 C3.37479117 89.6726557 3.38007023 99.43423472 3.3965925 109.19599718 C3.41020052 117.57058954 3.41213021 125.94512525 3.40427649 134.3197251 C3.39959553 139.32435123 3.39898663 144.32888896 3.40888596 149.33350945 C3.4175432 154.03915912 3.41155645 158.74456616 3.39420319 163.45018959 C3.39023147 165.17878186 3.39138408 166.9073945 3.39799118 168.6359787 C3.40617 170.99282055 3.39593003 173.34888134 3.38095093 175.70567322 C3.37981985 177.02547149 3.37868877 178.34526976 3.37752342 179.70506191 C2.98076574 183.16787225 2.4895192 184.60349574 0 187 C-2.78333769 187.4870841 -4.25349027 187.49232177 -6.63244057 185.92340851 C-8.67610479 183.04909017 -8.41374392 180.18614309 -8.38095093 176.78796387 C-8.3856309 176.04839431 -8.39031087 175.30882476 -8.39513266 174.54684401 C-8.40712581 172.0616474 -8.39760885 169.57699785 -8.38818359 167.09179688 C-8.39224739 165.31299008 -8.39758818 163.53418582 -8.40411377 161.75538635 C-8.41781609 156.91867727 -8.41247672 152.08215969 -8.40297651 147.24544716 C-8.395395 142.18995258 -8.40242132 137.13447469 -8.40713501 132.07897949 C-8.41259697 123.5882675 -8.40538941 115.09763372 -8.39111328 106.60693359 C-8.37478593 96.782663 -8.38007413 86.95857917 -8.3965925 77.13431311 C-8.41019483 68.70793223 -8.41213316 60.28160767 -8.40427649 51.85521936 C-8.39959308 46.81876723 -8.39899344 41.78240295 -8.40888596 36.74595642 C-8.41753514 32.01158315 -8.41157131 27.27745129 -8.39420319 22.54310417 C-8.39022736 20.80280394 -8.39139103 19.06248349 -8.39799118 17.32219124 C-8.40615375 14.95186278 -8.39594997 12.58231448 -8.38095093 10.21203613 C-8.38764309 9.51855937 -8.39433526 8.82508262 -8.40123022 8.11059141 C-8.36624369 5.27250151 -8.3010246 3.42423689 -6.63244057 1.07268524 C-4.28024504 -0.47295475 -2.75332639 -0.41299896 0 0 Z " fill="#F8F3F0" transform="translate(435,214)"/>
<path d="M0 0 C2.42119753 2.42119753 2.24169036 3.67762644 2.27214891 6.9815101 C2.26836958 7.6778997 2.26459026 8.3742893 2.26069641 9.09178162 C2.26452196 9.83049675 2.26834751 10.56921188 2.27228898 11.33031231 C2.28265065 13.81850543 2.2786209 16.30646914 2.2746582 18.79467773 C2.27900294 20.57333593 2.28418528 22.35199224 2.29014587 24.13064575 C2.30357293 28.97150443 2.30411043 33.81228522 2.30158257 38.6531589 C2.30051535 42.689156 2.30538984 46.72513717 2.310188 50.76113087 C2.32129603 60.27997493 2.32171333 69.79877954 2.31567383 79.31762695 C2.30963195 89.14925321 2.32194754 98.98073644 2.3432439 108.81233829 C2.36083646 117.24293827 2.36686496 125.67349263 2.36360615 134.1041103 C2.36178938 139.14393916 2.36446858 144.18366601 2.37832069 149.22347832 C2.39085634 153.96192877 2.38899556 158.70015561 2.37590981 163.43860245 C2.37353513 165.18051922 2.37631041 166.92245152 2.38453293 168.66435051 C2.39492724 171.03690813 2.38695949 173.40870523 2.3742218 175.78123474 C2.38159609 176.47539362 2.38897037 177.1695525 2.39656812 177.88474649 C2.36449735 180.7116849 2.28066432 182.58721887 0.66801739 184.95898533 C-1 186 -1 186 -4.0625 185.875 C-7 185 -7 185 -9 182 C-9.19704469 179.5706192 -9.27833824 177.25561817 -9.26742554 174.82592773 C-9.27195665 174.09044173 -9.27648776 173.35495573 -9.28115618 172.59718227 C-9.29384438 170.12592273 -9.292177 167.65488232 -9.29052734 165.18359375 C-9.29650974 163.41463944 -9.30331462 161.64568774 -9.31088257 159.8767395 C-9.32857674 155.06693784 -9.33323932 150.25720731 -9.33451414 145.44737625 C-9.33641102 141.43618101 -9.34376591 137.42500243 -9.35085833 133.41381359 C-9.36715202 123.95392707 -9.3720263 114.49407863 -9.37060547 105.03417969 C-9.369403 95.2644123 -9.39052352 85.49486547 -9.4220928 75.72515392 C-9.4482089 67.34548747 -9.45897477 58.96589327 -9.45769465 50.58618641 C-9.45718374 45.57763229 -9.46293792 40.5692742 -9.48405075 35.5607605 C-9.50335534 30.85261744 -9.50361129 26.14485902 -9.48901749 21.43670273 C-9.48691874 19.70606808 -9.49169327 17.97540983 -9.5037384 16.24481583 C-9.51908703 13.8874432 -9.50995344 11.53141423 -9.49447632 9.17407227 C-9.50476344 8.48448646 -9.51505057 7.79490065 -9.52564943 7.0844183 C-9.47945115 3.91431463 -9.36118568 2.37922831 -7.13315773 0.03990173 C-4.32185219 -1.33059303 -2.91992742 -0.99892254 0 0 Z " fill="#FAF3F1" transform="translate(197,215)"/>
<path d="M0 0 C2.53996453 2.53996453 2.24373475 4.15657627 2.27105713 7.62083435 C2.26700867 8.40531448 2.26296021 9.18979462 2.25878906 9.99804688 C2.2622937 10.82417984 2.26579834 11.65031281 2.26940918 12.5014801 C2.27823381 15.24065478 2.2723748 17.97957256 2.265625 20.71875 C2.26697144 22.6168218 2.2689118 24.51489326 2.27142334 26.41296387 C2.27437559 30.39432045 2.27007371 34.37558741 2.26074219 38.35693359 C2.2493476 43.46852503 2.25590653 48.57990645 2.26788712 53.69149017 C2.27510298 57.61189363 2.27281905 61.53224704 2.26763153 65.45265198 C2.26629428 67.33777389 2.26794539 69.2229003 2.27259064 71.10801697 C2.2776514 73.73945205 2.26995208 76.37054372 2.25878906 79.00195312 C2.26283752 79.78643326 2.26688599 80.57091339 2.27105713 81.37916565 C2.22852836 86.77147164 2.22852836 86.77147164 0 89 C-3.5 89.3125 -3.5 89.3125 -7 89 C-9.48270523 85.27594215 -9.28869756 82.39822977 -9.2746582 78.08789062 C-9.27976913 77.28272507 -9.28488007 76.47755951 -9.29014587 75.647995 C-9.30405689 72.9840046 -9.30308417 70.32027242 -9.30078125 67.65625 C-9.30466698 65.80684309 -9.30900139 63.95743708 -9.31376648 62.10803223 C-9.32123166 58.23100898 -9.32093498 54.3540768 -9.31567383 50.47705078 C-9.30987478 45.50339813 -9.32681922 40.53011733 -9.3500185 35.55652618 C-9.36473319 31.73730278 -9.36563071 27.91816945 -9.36250877 24.09892273 C-9.363023 22.26485965 -9.36827958 20.43079165 -9.37832069 18.59675598 C-9.39062587 16.0349594 -9.38392973 13.47389382 -9.37231445 10.91210938 C-9.37995819 10.15149704 -9.38760193 9.3908847 -9.39547729 8.60722351 C-9.34427158 3.51050878 -9.34427158 3.51050878 -7.6681366 1.02502441 C-5.07902147 -0.56591617 -2.95840159 -0.31472357 0 0 Z " fill="#F8F2F3" transform="translate(117,263)"/>
<path d="M0 0 C3.0625 0.3125 3.0625 0.3125 4.72964478 1.33752441 C6.807851 4.41693354 6.4793417 7.63514614 6.45068359 11.22460938 C6.45594055 12.02977493 6.46119751 12.83494049 6.46661377 13.664505 C6.47982825 16.32861677 6.47107073 18.99213206 6.4609375 21.65625 C6.46295782 23.50565709 6.46586891 25.35506341 6.46963501 27.20446777 C6.47406032 31.0815387 6.46762067 34.95840237 6.45361328 38.83544922 C6.43652126 43.80912524 6.44636134 48.78231562 6.46433067 53.75597382 C6.47516293 57.5752123 6.47172474 61.39433534 6.4639473 65.21357727 C6.46194374 67.04763343 6.46440999 68.88170003 6.47138596 70.71574402 C6.47899131 73.27757596 6.46740951 75.83861766 6.45068359 78.40039062 C6.45979263 79.54130913 6.45979263 79.54130913 6.46908569 80.70527649 C6.40733558 85.80153539 6.40733558 85.80153539 4.72964478 88.28747559 C2.14124755 89.87892126 0.02042463 89.62717283 -2.9375 89.3125 C-5.47746453 86.77253547 -5.18123475 85.15592373 -5.20855713 81.69166565 C-5.20450867 80.90718552 -5.20046021 80.12270538 -5.19628906 79.31445312 C-5.1997937 78.48832016 -5.20329834 77.66218719 -5.20690918 76.8110199 C-5.21573381 74.07184522 -5.2098748 71.33292744 -5.203125 68.59375 C-5.20447144 66.6956782 -5.2064118 64.79760674 -5.20892334 62.89953613 C-5.21187559 58.91817955 -5.20757371 54.93691259 -5.19824219 50.95556641 C-5.1868476 45.84397497 -5.19340653 40.73259355 -5.20538712 35.62100983 C-5.21260298 31.70060637 -5.21031905 27.78025296 -5.20513153 23.85984802 C-5.20379428 21.97472611 -5.20544539 20.0895997 -5.21009064 18.20448303 C-5.2151514 15.57304795 -5.20745208 12.94195628 -5.19628906 10.31054688 C-5.20236176 9.13382668 -5.20236176 9.13382668 -5.20855713 7.93333435 C-5.15030873 0.54790518 -5.15030873 0.54790518 0 0 Z " fill="#F7F2F1" transform="translate(511.9375,262.6875)"/>
<path d="M0 0 C2.9375 0.875 2.9375 0.875 4.9375 3.875 C5.13248227 6.4212391 5.21655784 8.83243895 5.1875 11.375 C5.19523437 12.05175781 5.20296875 12.72851562 5.2109375 13.42578125 C5.19634811 17.12419257 5.04014442 18.72103337 2.9375 21.875 C-0.5625 22.1875 -0.5625 22.1875 -4.0625 21.875 C-6.67292212 19.26457788 -6.35096788 17.36378815 -6.38476562 13.80273438 C-6.38154297 13.02220703 -6.37832031 12.24167969 -6.375 11.4375 C-6.39111328 10.66083984 -6.40722656 9.88417969 -6.42382812 9.08398438 C-6.42876042 3.35759327 -6.42876042 3.35759327 -4.73120117 1.12084961 C-3.0625 -0.125 -3.0625 -0.125 0 0 Z " fill="#F9EFF0" transform="translate(88.0625,296.125)"/>
<path d="M0 0 C3.5 -0.3125 3.5 -0.3125 7 0 C9.62723824 2.62723824 9.26115971 4.54211673 9.2734375 8.12109375 C9.26570312 8.90613281 9.25796875 9.69117188 9.25 10.5 C9.25773438 11.28503906 9.26546875 12.07007813 9.2734375 12.87890625 C9.25330787 18.74669213 9.25330787 18.74669213 7 21 C3.5 21.3125 3.5 21.3125 0 21 C-2.41564046 17.37653931 -2.29781669 14.68396018 -2.25 10.5 C-2.25773438 9.82324219 -2.26546875 9.14648438 -2.2734375 8.44921875 C-2.25884811 4.75080743 -2.10264442 3.15396663 0 0 Z " fill="#FBF0F0" transform="translate(535,297)"/>
<path d="M0 0 C0.33 0 0.66 0 1 0 C1.04627129 10.78729626 1.08184264 21.57456904 1.10362434 32.3619442 C1.11407667 37.37056347 1.12826221 42.37911502 1.15087891 47.38769531 C1.17255575 52.21818333 1.1845577 57.04860606 1.18975449 61.87913895 C1.19345954 63.72519585 1.20069425 65.57124906 1.21146011 67.41727829 C1.22590657 69.99620124 1.22798083 72.57485191 1.22705078 75.15380859 C1.23783661 76.30718971 1.23783661 76.30718971 1.24884033 77.48387146 C1.22810432 82.77189568 1.22810432 82.77189568 -1 85 C-1.99 84.67 -2.98 84.34 -4 84 C-2.02 83.01 -2.02 83.01 0 82 C0 54.94 0 27.88 0 0 Z " fill="#C82029" transform="translate(519,267)"/>
<path d="M0 0 C1.02814316 0.00222061 2.05628632 0.00444122 3.11558533 0.00672913 C4.85727745 0.00684242 4.85727745 0.00684242 6.63415527 0.00695801 C8.52943214 0.01469994 8.52943214 0.01469994 10.46299744 0.02259827 C12.39193092 0.02472069 12.39193092 0.02472069 14.35983276 0.02688599 C17.78427561 0.03071034 21.20867628 0.0405399 24.63310242 0.05158997 C28.12522308 0.06180587 31.61735053 0.06638399 35.10948181 0.07142639 C41.96561897 0.08216225 48.82172806 0.09923767 55.67784119 0.12025452 C55.67784119 0.45025452 55.67784119 0.78025452 55.67784119 1.12025452 C37.19784119 1.12025452 18.71784119 1.12025452 -0.32215881 1.12025452 C-0.32215881 2.77025452 -0.32215881 4.42025452 -0.32215881 6.12025452 C0.33784119 6.45025452 0.99784119 6.78025452 1.67784119 7.12025452 C0.02784119 6.79025452 -1.62215881 6.46025452 -3.32215881 6.12025452 C-3.36487981 4.45413547 -3.36279713 2.78642567 -3.32215881 1.12025452 C-2.32215881 0.12025452 -2.32215881 0.12025452 0 0 Z " fill="#C1242D" transform="translate(316.32215881347656,231.87974548339844)"/>
<path d="M0 0 C0.95486298 0.02220612 1.90972595 0.04441223 2.89352417 0.06729126 C3.97449371 0.08746307 5.05546326 0.10763489 6.16918945 0.12841797 C7.92548172 0.17671249 7.92548172 0.17671249 9.71725464 0.22598267 C10.91301117 0.25100861 12.1087677 0.27603455 13.34075928 0.30181885 C17.17226736 0.3842051 21.00327424 0.48072346 24.83444214 0.57754517 C27.42686936 0.63576562 30.01931735 0.69306928 32.61178589 0.74942017 C38.9779507 0.88981167 45.34376008 1.0418173 51.70944214 1.20254517 C51.70944214 1.53254517 51.70944214 1.86254517 51.70944214 2.20254517 C34.21944214 2.53254517 16.72944214 2.86254517 -1.29055786 3.20254517 C-1.62055786 4.85254517 -1.95055786 6.50254517 -2.29055786 8.20254517 C-2.95055786 7.87254517 -3.61055786 7.54254517 -4.29055786 7.20254517 C-4.41555786 4.82754517 -4.41555786 4.82754517 -4.29055786 2.20254517 C-2.29055786 0.20254517 -2.29055786 0.20254517 0 0 Z " fill="#C22B35" transform="translate(317.2905578613281,180.79745483398438)"/>
<path d="M0 0 C4.56454251 0.54339792 7.9728176 1.79463821 12 4 C12 4.66 12 5.32 12 6 C13.32 6.33 14.64 6.66 16 7 C15.67 7.66 15.34 8.32 15 9 C10.05 6.36 5.1 3.72 0 1 C0 0.67 0 0.34 0 0 Z " fill="#B9232F" transform="translate(195,527)"/>
<path d="M0 0 C1 4 1 4 1 8 C0.01 8.66 -0.98 9.32 -2 10 C-3.06246527 11.96752828 -4.07137808 13.96587579 -5 16 C-5.66 15.67 -6.32 15.34 -7 15 C-3.535 7.575 -3.535 7.575 0 0 Z " fill="#F1CECF" transform="translate(387,322)"/>
<path d="M0 0 C0.66 0.99 1.32 1.98 2 3 C0.02 4.98 -1.96 6.96 -4 9 C-4.66 8.67 -5.32 8.34 -6 8 C-4.55746343 4.63408134 -2.66735273 2.48952921 0 0 Z " fill="#BA2732" transform="translate(357,333)"/>
<path d="M0 0 C0.66 0.33 1.32 0.66 2 1 C1.67 2.65 1.34 4.3 1 6 C-1.66666667 6 -4.33333333 6 -7 6 C-4.69 4.02 -2.38 2.04 0 0 Z " fill="#F0E6E7" transform="translate(279,146)"/>
<path d="M0 0 C2.18975773 3.28463659 2.99806563 6.20696275 4 10 C3.01 10 2.02 10 1 10 C0.63883954 8.5225254 0.28624952 7.04295325 -0.0625 5.5625 C-0.25972656 4.73878906 -0.45695313 3.91507813 -0.66015625 3.06640625 C-0.82837891 2.04353516 -0.82837891 2.04353516 -1 1 C-0.67 0.67 -0.34 0.34 0 0 Z " fill="#BA232D" transform="translate(543,230)"/>
<path d="M0 0 C3.55780196 0.60990891 6.6828589 1.5783681 10 3 C9.67 3.66 9.34 4.32 9 5 C7.35 5 5.7 5 4 5 C3.71125 4.360625 3.4225 3.72125 3.125 3.0625 C2.17176549 0.84793921 2.17176549 0.84793921 0 0 Z " fill="#B61D2A" transform="translate(284,347)"/>
<path d="M0 0 C0.99 0.66 1.98 1.32 3 2 C1.8553125 2.8971875 1.8553125 2.8971875 0.6875 3.8125 C-1.3483575 5.46959332 -3.1978279 7.10297674 -5 9 C-3.7508258 5.54074837 -2.32472205 2.85306797 0 0 Z " fill="#B01E28" transform="translate(111,174)"/>
<path d="M0 0 C1.32 0 2.64 0 4 0 C4 1.98 4 3.96 4 6 C2.35 5.01 0.7 4.02 -1 3 C-0.67 2.01 -0.34 1.02 0 0 Z " fill="#F4F1F1" transform="translate(468,120)"/>
<path d="M0 0 C4.455 0.99 4.455 0.99 9 2 C5 4 5 4 1.75 3.125 C0.8425 2.75375 -0.065 2.3825 -1 2 C-0.67 1.34 -0.34 0.68 0 0 Z " fill="#B4252F" transform="translate(228,541)"/>
<path d="M0 0 C0.66 0 1.32 0 2 0 C2 1.98 2 3.96 2 6 C0.02 6.99 0.02 6.99 -2 8 C-1.34 5.36 -0.68 2.72 0 0 Z " fill="#B32B36" transform="translate(81,232)"/>
<path d="M0 0 C0.66 0.33 1.32 0.66 2 1 C2 2.65 2 4.3 2 6 C2.66 6.33 3.32 6.66 4 7 C2.35 6.67 0.7 6.34 -1 6 C-0.67 4.02 -0.34 2.04 0 0 Z " fill="#B82933" transform="translate(314,207)"/>
<path d="M0 0 C2.31 1.98 4.62 3.96 7 6 C6.01 6.33 5.02 6.66 4 7 C4 6.34 4 5.68 4 5 C3.34 5 2.68 5 2 5 C2 4.34 2 3.68 2 3 C1.01 3 0.02 3 -1 3 C-0.67 2.01 -0.34 1.02 0 0 Z " fill="#F6E6EA" transform="translate(138,485)"/>
<path d="M0 0 C0.66 0.33 1.32 0.66 2 1 C2.625 4.0625 2.625 4.0625 3 7 C1.68 6.67 0.36 6.34 -1 6 C-0.67 4.02 -0.34 2.04 0 0 Z " fill="#B92A32" transform="translate(314,282)"/>
<path d="M0 0 C0.33 0.66 0.66 1.32 1 2 C1.66 2 2.32 2 3 2 C3 3.65 3 5.3 3 7 C1.35 5.35 -0.3 3.7 -2 2 C-1.34 1.34 -0.68 0.68 0 0 Z " fill="#F8EFEE" transform="translate(481,130)"/>
<path d="M0 0 C-2.17424117 2.50037734 -3.73045798 3.43628586 -7 4 C-7.33 3.01 -7.66 2.02 -8 1 C-4.93251126 -0.86240388 -3.40254489 -1.2151946 0 0 Z " fill="#AE1F28" transform="translate(221,88)"/>
<path d="M0 0 C0 0.66 0 1.32 0 2 C1.98 2 3.96 2 6 2 C6 2.33 6 2.66 6 3 C1.48382401 3.07654536 -2.59085217 3.10228696 -7 2 C-7 1.67 -7 1.34 -7 1 C-2.25 0 -2.25 0 0 0 Z " fill="#ECC4C6" transform="translate(296,392)"/>
<path d="M0 0 C2.52588702 2.36292656 3.88820837 3.66462511 5 7 C4.01 7 3.02 7 2 7 C1.01 5.02 0.02 3.04 -1 1 C-0.67 0.67 -0.34 0.34 0 0 Z " fill="#B62B36" transform="translate(515,175)"/>
</svg>
